<mxfile host="Electron" agent="Mozilla/5.0 (Macintosh; Intel Mac OS X 10_15_7) AppleWebKit/537.36 (KHTML, like Gecko) draw.io/24.7.17 Chrome/128.0.6613.36 Electron/32.0.1 Safari/537.36" version="24.7.17" pages="2">
  <diagram id="Tod-toiz3IOBh-QDTpqw" name="sso-principles-de">
    <mxGraphModel dx="1114" dy="803" grid="1" gridSize="10" guides="1" tooltips="1" connect="1" arrows="1" fold="1" page="1" pageScale="1" pageWidth="850" pageHeight="1100" math="0" shadow="0">
      <root>
        <mxCell id="0" />
        <mxCell id="1" parent="0" />
        <mxCell id="ddRNVsLwT3N909z3PBKY-1" value="Access&lt;br&gt;&lt;div style=&quot;&quot;&gt;&lt;span style=&quot;background-color: initial;&quot;&gt;Server&lt;/span&gt;&lt;/div&gt;" style="rounded=0;whiteSpace=wrap;html=1;strokeColor=#312D2A;fillColor=#2C5967;fontColor=#FFFFFF;fontSize=23;align=left;spacing=7;fontFamily=Calibri;" vertex="1" parent="1">
          <mxGeometry x="358.48544999999996" y="230" width="331.8891" height="80" as="geometry" />
        </mxCell>
        <mxCell id="ddRNVsLwT3N909z3PBKY-2" value="6" style="ellipse;whiteSpace=wrap;html=1;aspect=fixed;strokeColor=#AE562C;strokeWidth=3;fontColor=#AE562C;fontSize=23;fontFamily=Calibri;fillColor=none;" vertex="1" parent="1">
          <mxGeometry x="573" y="350" width="40" height="40" as="geometry" />
        </mxCell>
        <mxCell id="ddRNVsLwT3N909z3PBKY-3" value="TOKEN" style="rounded=0;whiteSpace=wrap;html=1;strokeColor=#759C6C;fillColor=#759C6C;fontColor=#FFFFFF;fontSize=15;direction=west;rotation=-90;" vertex="1" parent="1">
          <mxGeometry x="340.34000000000003" y="403.03999999999996" width="120" height="29.9212" as="geometry" />
        </mxCell>
        <mxCell id="ddRNVsLwT3N909z3PBKY-4" value="8" style="ellipse;whiteSpace=wrap;html=1;aspect=fixed;strokeColor=#AE562C;strokeWidth=3;fontColor=#AE562C;fontSize=23;fontFamily=Calibri;fillColor=none;" vertex="1" parent="1">
          <mxGeometry x="675" y="350" width="40" height="40" as="geometry" />
        </mxCell>
        <mxCell id="ddRNVsLwT3N909z3PBKY-5" value="" style="rounded=0;whiteSpace=wrap;html=1;strokeWidth=3;strokeColor=#759C6C;fillColor=none;" vertex="1" parent="1">
          <mxGeometry x="40" y="234.99540000000002" width="229.92079999999999" height="70" as="geometry" />
        </mxCell>
        <mxCell id="ddRNVsLwT3N909z3PBKY-6" value="Anwendung 1" style="text;strokeColor=none;align=center;fillColor=none;html=1;verticalAlign=middle;whiteSpace=wrap;rounded=0;fontSize=22;fontColor=#759C6C;fontFamily=Calibri;" vertex="1" parent="1">
          <mxGeometry x="90" y="259.5" width="180" height="21" as="geometry" />
        </mxCell>
        <mxCell id="ddRNVsLwT3N909z3PBKY-7" value="" style="endArrow=none;html=1;rounded=0;strokeWidth=3;strokeColor=#759C6C;exitX=0;exitY=0.5;exitDx=0;exitDy=0;" edge="1" parent="1" source="ddRNVsLwT3N909z3PBKY-3">
          <mxGeometry width="50" height="50" relative="1" as="geometry">
            <mxPoint x="400" y="341" as="sourcePoint" />
            <mxPoint x="400" y="320" as="targetPoint" />
          </mxGeometry>
        </mxCell>
        <mxCell id="ddRNVsLwT3N909z3PBKY-8" value="" style="endArrow=none;html=1;rounded=0;strokeWidth=3;strokeColor=#759C6C;" edge="1" parent="1">
          <mxGeometry width="50" height="50" relative="1" as="geometry">
            <mxPoint x="400" y="514.96" as="sourcePoint" />
            <mxPoint x="400" y="478" as="targetPoint" />
          </mxGeometry>
        </mxCell>
        <mxCell id="ddRNVsLwT3N909z3PBKY-9" value="" style="endArrow=none;html=1;rounded=0;strokeWidth=3;strokeColor=#759C6C;" edge="1" parent="1">
          <mxGeometry width="50" height="50" relative="1" as="geometry">
            <mxPoint x="280" y="547" as="sourcePoint" />
            <mxPoint x="360" y="547" as="targetPoint" />
          </mxGeometry>
        </mxCell>
        <mxCell id="ddRNVsLwT3N909z3PBKY-10" value="" style="endArrow=none;html=1;rounded=0;strokeWidth=3;edgeStyle=orthogonalEdgeStyle;endFill=0;strokeColor=#AE562C;" edge="1" parent="1">
          <mxGeometry width="50" height="50" relative="1" as="geometry">
            <mxPoint x="702" y="592" as="sourcePoint" />
            <mxPoint x="850" y="320" as="targetPoint" />
          </mxGeometry>
        </mxCell>
        <mxCell id="ddRNVsLwT3N909z3PBKY-11" value="" style="endArrow=none;html=1;rounded=0;strokeWidth=3;strokeColor=#759C6C;dashed=1;fontFamily=Calibri;" edge="1" parent="1">
          <mxGeometry width="50" height="50" relative="1" as="geometry">
            <mxPoint x="360" y="590" as="sourcePoint" />
            <mxPoint x="437" y="590" as="targetPoint" />
          </mxGeometry>
        </mxCell>
        <mxCell id="ddRNVsLwT3N909z3PBKY-12" value="" style="endArrow=none;html=1;rounded=0;strokeWidth=3;strokeColor=#759C6C;" edge="1" parent="1">
          <mxGeometry width="50" height="50" relative="1" as="geometry">
            <mxPoint x="280" y="590" as="sourcePoint" />
            <mxPoint x="360" y="590" as="targetPoint" />
          </mxGeometry>
        </mxCell>
        <mxCell id="ddRNVsLwT3N909z3PBKY-13" value="" style="endArrow=none;html=1;rounded=0;strokeWidth=3;dashed=1;strokeColor=#759C6C;fontFamily=Calibri;" edge="1" parent="1">
          <mxGeometry width="50" height="50" relative="1" as="geometry">
            <mxPoint x="400" y="547" as="sourcePoint" />
            <mxPoint x="400" y="519" as="targetPoint" />
          </mxGeometry>
        </mxCell>
        <mxCell id="ddRNVsLwT3N909z3PBKY-14" value="" style="endArrow=none;html=1;rounded=0;strokeWidth=3;dashed=1;strokeColor=#759C6C;fontFamily=Calibri;" edge="1" parent="1">
          <mxGeometry width="50" height="50" relative="1" as="geometry">
            <mxPoint x="360" y="547" as="sourcePoint" />
            <mxPoint x="400" y="547" as="targetPoint" />
          </mxGeometry>
        </mxCell>
        <mxCell id="ddRNVsLwT3N909z3PBKY-15" value="" style="shape=image;verticalLabelPosition=bottom;labelBackgroundColor=default;verticalAlign=top;aspect=fixed;imageAspect=0;image=data:image/svg+xml,PHN2ZyB4bWxucz0iaHR0cDovL3d3dy53My5vcmcvMjAwMC9zdmciIHZpZXdCb3g9IjAgMCAyODggMjg4IiBpZD0iQVJUIj48ZGVmcz48c3R5bGU+LmNscy0xe2ZpbGw6IzMxMmQyYTt9PC9zdHlsZT48L2RlZnM+PHBhdGggZD0iTTIyNSw4OC4yNFY2MGExNywxNywwLDAsMC0xNy0xN2gtNmExNywxNywwLDAsMC0xNywxN1Y3OS4wNkExNi45MSwxNi45MSwwLDAsMSwxODksOTB2Nmg1Ljk0YTEzLjIzLDEzLjIzLDAsMCwwLDIwLjEyLDBIMjIyYTEzLDEzLDAsMCwxLDEzLDEzdjQxaC02VjExNWgtOHYzMkgxODl2OGgzMnY0MUgxODlWMTY2aC04djM4aDZ2NTFoMzZWMjA0aDZWMTcyaDE0VjEwOUEyMSwyMSwwLDAsMCwyMjUsODguMjRaTTE5Ni43Miw3My42OEExMS44MywxMS44MywwLDAsMSwxOTMuMDUsNjZhMTguMjYsMTguMjYsMCwwLDAsMi41NS4xOSwxNi45NCwxNi45NCwwLDAsMCw5LjQtMi44OEExNi44NiwxNi44NiwwLDAsMCwyMTYuOTEsNjZhMTIuMzIsMTIuMzIsMCwwLDEtMTEuMzMsMTFBMTEuOTEsMTEuOTEsMCwwLDEsMTk2LjcyLDczLjY4Wk0yMDIsNTFoNmE5LDksMCwwLDEsOC43NCw2Ljg4Yy0xLjg3LjQ4LTUuMzguNzEtOS0yLjYzTDIwNSw1Mi44bC0yLjY5LDIuNDVjLTMuNjgsMy4zNS03LjE5LDMuMTEtOSwyLjYyQTksOSwwLDAsMSwyMDIsNTFabTMsNDEuNjRhNS4xNSw1LjE1LDAsMCwxLTQtMS44NlY4NC42YTIwLjMsMjAuMywwLDAsMCw0LC40bDEsMGExOSwxOSwwLDAsMCwzLS40MXY2LjIxQTUuMTUsNS4xNSwwLDAsMSwyMDUsOTIuNjRaTTIwMSwyMDR2MjloLTZWMjA0Wm0tNiwzN2g2djZoLTZabTE0LDZ2LTZoNnY2Wm02LTE0aC02VjIwNGg2Wm0xNC02OXYtNmg2djZaTTk3LDE5Nkg2NVYxNTVIOTd2LThIODZWOTkuNjhBMTMsMTMsMCwwLDAsOTEuMDYsOTZIOTdWODljMC0uMzQsMC0uNjcsMC0xSDkzVjgzaDhWNjBBMTcsMTcsMCwwLDAsODQsNDNINzhBMTcsMTcsMCwwLDAsNjEsNjBWODNoOHY1SDY0YTIxLDIxLDAsMCwwLTIxLDIxdjYzSDU3djMyaDZ2NTFIOTlWMjA0aDZWMTY2SDk3Wk04OS4yOCw3My42OEExMiwxMiwwLDAsMSw4MC40Miw3NywxMi4zMiwxMi4zMiwwLDAsMSw2OS4wOSw2NiwxNi44NiwxNi44NiwwLDAsMCw4MSw2My4yN2ExNi45NCwxNi45NCwwLDAsMCw5LjQsMi44OEExOC4yNiwxOC4yNiwwLDAsMCw5Myw2NiwxMS44MywxMS44MywwLDAsMSw4OS4yOCw3My42OFpNNzcsODQuNTdBMTksMTksMCwwLDAsODAsODVsMSwwYTIwLjMsMjAuMywwLDAsMCw0LS40djYuMThhNS4yMyw1LjIzLDAsMCwxLTgsMFpNNzgsNTFoNmE5LDksMCwwLDEsOC43NCw2Ljg3Yy0xLjg2LjQ5LTUuMzcuNzQtOS0yLjYyTDgxLDUyLjhsLTIuNywyLjQ1Yy0zLjY4LDMuMzYtNy4xOSwzLjExLTksMi42M0E5LDksMCwwLDEsNzgsNTFaTTY0LDk2aDYuOTRBMTMsMTMsMCwwLDAsNzgsMTAwLjNWMTQ3SDY1VjExNUg1N3YzNUg1MVYxMDlBMTMsMTMsMCwwLDEsNjQsOTZaTTUxLDE2NHYtNmg2djZabTI2LDQwdjI5SDcxVjIwNFptLTYsMzdoNnY2SDcxWm0xNCw2di02aDZ2NlptNi0xNEg4NVYyMDRoNlptNzgsMTRWMTYwaDE0VjkyYTE2LDE2LDAsMCwwLTE2LTE2SDE1N1Y2Ny4yN0ExOS44MywxOS44MywwLDAsMCwxNjMsNTNWMzFIMTMyYTksOSwwLDAsMC05LDlWNTIuNTVhMjAuNjYsMjAuNjYsMCwwLDAsNiwxNC42MVY3NkgxMTlhMTYsMTYsMCwwLDAtMTYsMTZ2NjhoMTR2ODdoMGwtOCw0djRoNjh2LTRsLTgtNFptMC05NXYtNmg2djZabTYtNjB2NDZoLTZWMTAzaC04djQ2LjI4YTI0LjQ3LDI0LjQ3LDAsMCwxLTUuMTUtMS45NUMxNDkuOSwxNDQuMjIsMTQ3LDEzOS4yLDE0NywxMzJWMTAxLjY2TDE2NC42Niw4NEgxNjdBOCw4LDAsMCwxLDE3NSw5MlpNMTMxLDUyLjU1VjUyaDE2YTE1Ljg2LDE1Ljg2LDAsMCwwLDgtMi4xN1Y1M2ExMS44NywxMS44NywwLDAsMS0zLjcyLDguNjhBMTIsMTIsMCwwLDEsMTQyLjQyLDY1QzEzNi4xMiw2NC42OSwxMzEsNTkuMTEsMTMxLDUyLjU1Wk0xNDcsODRoNi4zNEwxNDcsOTAuMzRabS04LDYuMzRMMTMyLjY2LDg0SDEzOVpNMTMyLDM5aDIyLjQxQTgsOCwwLDAsMSwxNDcsNDRIMTMxVjQwQTEsMSwwLDAsMSwxMzIsMzlabTEwLDM0LDEsMGEyMCwyMCwwLDAsMCw2LS45MlY3NkgxMzd2LTRBMTkuODksMTkuODksMCwwLDAsMTQyLDczWk0xMTksODRoMi4zNEwxMzksMTAxLjY2VjEzMmMwLDcuMTItMi44MywxMi4wOS04LjY0LDE1LjIyYTI0LjcyLDI0LjcyLDAsMCwxLTUuMzYsMi4wNlYxMDNoLTh2MzVoLTZWOTJBOCw4LDAsMCwxLDExOSw4NFptLTgsNjh2LTZoNnY2Wm0zOCw5NWgtMlYxNjRoLTh2ODNIMTI1VjE1Ny41NGM2LTEuMTIsMTMuNDgtNC4zNiwxOC0xMS4xOSw0LjUyLDYuODMsMTIsMTAuMDcsMTgsMTEuMTlWMjQ3WiIgY2xhc3M9ImNscy0xIi8+PC9zdmc+;fontColor=#312D2A;" vertex="1" parent="1">
          <mxGeometry x="458.93499999999995" y="599" width="130.99" height="131" as="geometry" />
        </mxCell>
        <mxCell id="ddRNVsLwT3N909z3PBKY-16" value="" style="endArrow=block;html=1;rounded=0;strokeWidth=3;endFill=1;startArrow=block;startFill=1;strokeColor=#2C5967;" edge="1" parent="1">
          <mxGeometry width="50" height="50" relative="1" as="geometry">
            <mxPoint x="523" y="592" as="sourcePoint" />
            <mxPoint x="524" y="320" as="targetPoint" />
          </mxGeometry>
        </mxCell>
        <mxCell id="ddRNVsLwT3N909z3PBKY-17" value="2" style="ellipse;whiteSpace=wrap;html=1;aspect=fixed;strokeColor=#2C5967;strokeWidth=3;fontColor=#2C5967;fontSize=23;fontFamily=Calibri;fillColor=none;" vertex="1" parent="1">
          <mxGeometry x="531" y="350" width="40" height="40" as="geometry" />
        </mxCell>
        <mxCell id="ddRNVsLwT3N909z3PBKY-18" value="" style="endArrow=none;html=1;rounded=0;strokeWidth=3;edgeStyle=orthogonalEdgeStyle;endFill=0;startArrow=block;startFill=1;strokeColor=#759C6C;" edge="1" parent="1">
          <mxGeometry width="50" height="50" relative="1" as="geometry">
            <mxPoint x="180" y="320" as="sourcePoint" />
            <mxPoint x="439" y="637" as="targetPoint" />
            <Array as="points">
              <mxPoint x="180" y="320" />
              <mxPoint x="180" y="690" />
            </Array>
          </mxGeometry>
        </mxCell>
        <mxCell id="ddRNVsLwT3N909z3PBKY-19" value="" style="endArrow=none;html=1;rounded=0;strokeWidth=3;edgeStyle=orthogonalEdgeStyle;endFill=0;startArrow=none;startFill=0;strokeColor=#759C6C;" edge="1" parent="1">
          <mxGeometry width="50" height="50" relative="1" as="geometry">
            <mxPoint x="200" y="320" as="sourcePoint" />
            <mxPoint x="280" y="590" as="targetPoint" />
            <Array as="points">
              <mxPoint x="200" y="590" />
            </Array>
          </mxGeometry>
        </mxCell>
        <mxCell id="ddRNVsLwT3N909z3PBKY-20" value="" style="endArrow=none;html=1;rounded=0;strokeWidth=3;edgeStyle=orthogonalEdgeStyle;endFill=0;startArrow=block;startFill=1;strokeColor=#759C6C;" edge="1" parent="1">
          <mxGeometry width="50" height="50" relative="1" as="geometry">
            <mxPoint x="220" y="320" as="sourcePoint" />
            <mxPoint x="281" y="547" as="targetPoint" />
            <Array as="points">
              <mxPoint x="220" y="320" />
              <mxPoint x="220" y="546" />
            </Array>
          </mxGeometry>
        </mxCell>
        <mxCell id="ddRNVsLwT3N909z3PBKY-21" value="4" style="ellipse;whiteSpace=wrap;html=1;aspect=fixed;strokeColor=#759C6C;strokeWidth=3;fontColor=#759C6C;fontSize=23;fontFamily=Calibri;fillColor=none;" vertex="1" parent="1">
          <mxGeometry x="228.99999999999994" y="350" width="40" height="40" as="geometry" />
        </mxCell>
        <mxCell id="ddRNVsLwT3N909z3PBKY-22" value="1" style="ellipse;whiteSpace=wrap;html=1;aspect=fixed;strokeColor=#759C6C;strokeWidth=3;fontColor=#759C6C;fontSize=23;fontFamily=Calibri;fillColor=none;" vertex="1" parent="1">
          <mxGeometry x="130" y="350" width="40" height="40" as="geometry" />
        </mxCell>
        <mxCell id="ddRNVsLwT3N909z3PBKY-23" value="redirect" style="rounded=0;whiteSpace=wrap;html=1;strokeColor=none;fillColor=none;fontColor=#759C6C;fontSize=16;spacing=0;align=center;fontFamily=Calibri;" vertex="1" parent="1">
          <mxGeometry x="310" y="520" width="58.6613" height="27" as="geometry" />
        </mxCell>
        <mxCell id="ddRNVsLwT3N909z3PBKY-24" value="redirect" style="rounded=0;whiteSpace=wrap;html=1;strokeColor=none;fillColor=none;fontColor=#AE562C;fontSize=16;align=center;fontFamily=Calibri;" vertex="1" parent="1">
          <mxGeometry x="701" y="564" width="58.6613" height="27" as="geometry" />
        </mxCell>
        <mxCell id="ddRNVsLwT3N909z3PBKY-25" value="login" style="rounded=0;whiteSpace=wrap;html=1;strokeColor=none;fillColor=none;fontColor=#2C5967;fontSize=16;align=center;rotation=-90;fontFamily=Calibri;" vertex="1" parent="1">
          <mxGeometry x="508.2900000000001" y="444" width="58.6613" height="27" as="geometry" />
        </mxCell>
        <mxCell id="ddRNVsLwT3N909z3PBKY-26" value="request" style="rounded=0;whiteSpace=wrap;html=1;strokeColor=none;fillColor=none;fontColor=#759C6C;fontSize=16;spacing=0;align=center;fontFamily=Calibri;" vertex="1" parent="1">
          <mxGeometry x="310" y="609" width="58.6613" height="27" as="geometry" />
        </mxCell>
        <mxCell id="ddRNVsLwT3N909z3PBKY-27" value="5" style="ellipse;whiteSpace=wrap;html=1;aspect=fixed;strokeColor=#759C6C;strokeWidth=3;fontColor=#759C6C;fontSize=23;fontFamily=Calibri;fillColor=none;" vertex="1" parent="1">
          <mxGeometry x="40" y="350" width="40" height="40" as="geometry" />
        </mxCell>
        <mxCell id="ddRNVsLwT3N909z3PBKY-28" value="Content" style="rounded=0;whiteSpace=wrap;html=1;strokeColor=none;fillColor=none;fontColor=#759C6C;fontSize=16;spacing=0;align=center;fontFamily=Calibri;" vertex="1" parent="1">
          <mxGeometry x="310" y="699" width="58.6613" height="27" as="geometry" />
        </mxCell>
        <mxCell id="ddRNVsLwT3N909z3PBKY-29" value="" style="endArrow=block;html=1;rounded=0;strokeWidth=3;edgeStyle=orthogonalEdgeStyle;endFill=1;startArrow=none;startFill=0;strokeColor=#759C6C;" edge="1" parent="1">
          <mxGeometry width="50" height="50" relative="1" as="geometry">
            <mxPoint x="92" y="320" as="sourcePoint" />
            <mxPoint x="440" y="695" as="targetPoint" />
            <Array as="points">
              <mxPoint x="90" y="320" />
              <mxPoint x="90" y="695" />
            </Array>
          </mxGeometry>
        </mxCell>
        <mxCell id="ddRNVsLwT3N909z3PBKY-30" value="" style="shape=cylinder3;whiteSpace=wrap;html=1;boundedLbl=1;backgroundOutline=1;size=15;strokeWidth=3;fillColor=#FFFFFF;strokeColor=#2C5967;" vertex="1" parent="1">
          <mxGeometry x="464.42999999999995" y="235" width="120" height="70" as="geometry" />
        </mxCell>
        <mxCell id="ddRNVsLwT3N909z3PBKY-31" value="Sitzungs-&lt;br style=&quot;font-size: 12px;&quot;&gt;Datenbank" style="rounded=0;whiteSpace=wrap;html=1;strokeColor=none;fillColor=none;fontColor=#312D2A;fontSize=12;direction=west;rotation=0;fontFamily=Calibri;" vertex="1" parent="1">
          <mxGeometry x="464.42999999999995" y="270" width="120" height="29.9212" as="geometry" />
        </mxCell>
        <mxCell id="ddRNVsLwT3N909z3PBKY-32" value="" style="endArrow=none;html=1;rounded=0;strokeWidth=3;dashed=1;strokeColor=#759C6C;" edge="1" parent="1">
          <mxGeometry width="50" height="50" relative="1" as="geometry">
            <mxPoint x="437" y="590" as="sourcePoint" />
            <mxPoint x="437" y="519" as="targetPoint" />
          </mxGeometry>
        </mxCell>
        <mxCell id="ddRNVsLwT3N909z3PBKY-33" value="redirect" style="rounded=0;whiteSpace=wrap;html=1;strokeColor=none;fillColor=none;fontColor=#759C6C;fontSize=16;spacing=0;align=center;fontFamily=Calibri;" vertex="1" parent="1">
          <mxGeometry x="310" y="561" width="58.6613" height="27" as="geometry" />
        </mxCell>
        <mxCell id="ddRNVsLwT3N909z3PBKY-34" value="" style="endArrow=block;html=1;rounded=0;strokeWidth=3;strokeColor=#759C6C;endFill=1;" edge="1" parent="1">
          <mxGeometry width="50" height="50" relative="1" as="geometry">
            <mxPoint x="437" y="522" as="sourcePoint" />
            <mxPoint x="437" y="320" as="targetPoint" />
          </mxGeometry>
        </mxCell>
        <mxCell id="ddRNVsLwT3N909z3PBKY-35" value="1" style="ellipse;whiteSpace=wrap;html=1;aspect=fixed;strokeColor=#759C6C;strokeWidth=3;fontColor=#759C6C;fontSize=23;fontFamily=Calibri;fillColor=none;" vertex="1" parent="1">
          <mxGeometry x="446" y="350" width="40" height="40" as="geometry" />
        </mxCell>
        <mxCell id="ddRNVsLwT3N909z3PBKY-36" value="4" style="ellipse;whiteSpace=wrap;html=1;aspect=fixed;strokeColor=#759C6C;strokeWidth=3;fontColor=#759C6C;fontSize=23;fontFamily=Calibri;fillColor=none;" vertex="1" parent="1">
          <mxGeometry x="340.3399999999999" y="350" width="40" height="40" as="geometry" />
        </mxCell>
        <mxCell id="ddRNVsLwT3N909z3PBKY-37" value="" style="rounded=0;whiteSpace=wrap;html=1;strokeWidth=3;strokeColor=#AE562C;fillColor=none;" vertex="1" parent="1">
          <mxGeometry x="780" y="229.99540000000002" width="229.92079999999999" height="70" as="geometry" />
        </mxCell>
        <mxCell id="ddRNVsLwT3N909z3PBKY-38" value="Anwendung 2" style="text;strokeColor=none;align=center;fillColor=none;html=1;verticalAlign=middle;whiteSpace=wrap;rounded=0;fontSize=22;fontColor=#AE562C;fontFamily=Calibri;" vertex="1" parent="1">
          <mxGeometry x="830" y="254.5" width="180" height="21" as="geometry" />
        </mxCell>
        <mxCell id="ddRNVsLwT3N909z3PBKY-39" value="" style="endArrow=block;html=1;rounded=0;strokeWidth=3;strokeColor=#AE562C;endFill=1;" edge="1" parent="1">
          <mxGeometry width="50" height="50" relative="1" as="geometry">
            <mxPoint x="620" y="520" as="sourcePoint" />
            <mxPoint x="620" y="318" as="targetPoint" />
          </mxGeometry>
        </mxCell>
        <mxCell id="ddRNVsLwT3N909z3PBKY-40" value="" style="endArrow=none;html=1;rounded=0;strokeWidth=3;dashed=1;strokeColor=#AE562C;fontFamily=Calibri;" edge="1" parent="1">
          <mxGeometry width="50" height="50" relative="1" as="geometry">
            <mxPoint x="620" y="590" as="sourcePoint" />
            <mxPoint x="620" y="519" as="targetPoint" />
          </mxGeometry>
        </mxCell>
        <mxCell id="ddRNVsLwT3N909z3PBKY-41" value="" style="endArrow=none;html=1;rounded=0;strokeWidth=3;strokeColor=#AE562C;dashed=1;fontFamily=Calibri;" edge="1" parent="1">
          <mxGeometry width="50" height="50" relative="1" as="geometry">
            <mxPoint x="620" y="592" as="sourcePoint" />
            <mxPoint x="697" y="592" as="targetPoint" />
          </mxGeometry>
        </mxCell>
        <mxCell id="ddRNVsLwT3N909z3PBKY-42" value="TOKEN" style="rounded=0;whiteSpace=wrap;html=1;strokeColor=#AE562C;fillColor=#AE562C;fontColor=#FFFFFF;fontSize=15;direction=west;rotation=-90;" vertex="1" parent="1">
          <mxGeometry x="589.9200000000001" y="403.03999999999996" width="120" height="29.9212" as="geometry" />
        </mxCell>
        <mxCell id="ddRNVsLwT3N909z3PBKY-43" value="" style="endArrow=none;html=1;rounded=0;strokeWidth=3;strokeColor=#AE562C;exitX=0;exitY=0.5;exitDx=0;exitDy=0;" edge="1" parent="1" source="ddRNVsLwT3N909z3PBKY-42">
          <mxGeometry width="50" height="50" relative="1" as="geometry">
            <mxPoint x="649.58" y="341" as="sourcePoint" />
            <mxPoint x="649.58" y="320" as="targetPoint" />
          </mxGeometry>
        </mxCell>
        <mxCell id="ddRNVsLwT3N909z3PBKY-44" value="" style="endArrow=none;html=1;rounded=0;strokeWidth=3;strokeColor=#AE562C;" edge="1" parent="1">
          <mxGeometry width="50" height="50" relative="1" as="geometry">
            <mxPoint x="649.58" y="514.96" as="sourcePoint" />
            <mxPoint x="649.58" y="478" as="targetPoint" />
          </mxGeometry>
        </mxCell>
        <mxCell id="ddRNVsLwT3N909z3PBKY-45" value="" style="endArrow=none;html=1;rounded=0;strokeWidth=3;dashed=1;strokeColor=#AE562C;fontFamily=Calibri;" edge="1" parent="1">
          <mxGeometry width="50" height="50" relative="1" as="geometry">
            <mxPoint x="649.58" y="547" as="sourcePoint" />
            <mxPoint x="649.58" y="519" as="targetPoint" />
          </mxGeometry>
        </mxCell>
        <mxCell id="ddRNVsLwT3N909z3PBKY-46" value="&lt;br&gt;&lt;br&gt;&lt;br&gt;" style="endArrow=none;html=1;rounded=0;strokeWidth=3;edgeStyle=orthogonalEdgeStyle;endFill=0;startArrow=block;startFill=1;strokeColor=#AE562C;" edge="1" parent="1">
          <mxGeometry width="50" height="50" relative="1" as="geometry">
            <mxPoint x="873" y="320" as="sourcePoint" />
            <mxPoint x="620" y="637" as="targetPoint" />
            <Array as="points">
              <mxPoint x="873" y="320" />
              <mxPoint x="873" y="690" />
            </Array>
          </mxGeometry>
        </mxCell>
        <mxCell id="ddRNVsLwT3N909z3PBKY-47" value="6" style="ellipse;whiteSpace=wrap;html=1;aspect=fixed;strokeColor=#AE562C;strokeWidth=3;fontColor=#AE562C;fontSize=23;fontFamily=Calibri;fillColor=none;" vertex="1" parent="1">
          <mxGeometry x="880" y="350" width="40" height="40" as="geometry" />
        </mxCell>
        <mxCell id="ddRNVsLwT3N909z3PBKY-48" value="" style="endArrow=none;html=1;rounded=0;strokeWidth=3;edgeStyle=orthogonalEdgeStyle;endFill=0;startArrow=block;startFill=1;strokeColor=#AE562C;" edge="1" parent="1">
          <mxGeometry width="50" height="50" relative="1" as="geometry">
            <mxPoint x="827" y="320" as="sourcePoint" />
            <mxPoint x="766" y="547" as="targetPoint" />
            <Array as="points">
              <mxPoint x="827" y="320" />
              <mxPoint x="827" y="546" />
            </Array>
          </mxGeometry>
        </mxCell>
        <mxCell id="ddRNVsLwT3N909z3PBKY-49" value="" style="endArrow=none;html=1;rounded=0;strokeWidth=3;strokeColor=#AE562C;fontFamily=Calibri;" edge="1" parent="1">
          <mxGeometry width="50" height="50" relative="1" as="geometry">
            <mxPoint x="689.72" y="547" as="sourcePoint" />
            <mxPoint x="769.72" y="547" as="targetPoint" />
          </mxGeometry>
        </mxCell>
        <mxCell id="ddRNVsLwT3N909z3PBKY-50" value="" style="endArrow=none;html=1;rounded=0;strokeWidth=3;dashed=1;strokeColor=#AE562C;fontFamily=Calibri;" edge="1" parent="1">
          <mxGeometry width="50" height="50" relative="1" as="geometry">
            <mxPoint x="650" y="547" as="sourcePoint" />
            <mxPoint x="690" y="547" as="targetPoint" />
          </mxGeometry>
        </mxCell>
        <mxCell id="ddRNVsLwT3N909z3PBKY-51" value="" style="endArrow=block;html=1;rounded=0;strokeWidth=3;edgeStyle=orthogonalEdgeStyle;endFill=1;startArrow=none;startFill=0;strokeColor=#AE562C;" edge="1" parent="1">
          <mxGeometry width="50" height="50" relative="1" as="geometry">
            <mxPoint x="960" y="320" as="sourcePoint" />
            <mxPoint x="620" y="695" as="targetPoint" />
            <Array as="points">
              <mxPoint x="960" y="695" />
            </Array>
          </mxGeometry>
        </mxCell>
        <mxCell id="ddRNVsLwT3N909z3PBKY-52" value="redirect" style="rounded=0;whiteSpace=wrap;html=1;strokeColor=none;fillColor=none;fontColor=#AE562C;fontSize=16;align=center;fontFamily=Calibri;" vertex="1" parent="1">
          <mxGeometry x="701" y="520" width="58.6613" height="27" as="geometry" />
        </mxCell>
        <mxCell id="ddRNVsLwT3N909z3PBKY-53" value="request" style="rounded=0;whiteSpace=wrap;html=1;strokeColor=none;fillColor=none;fontColor=#AE562C;fontSize=16;align=center;fontFamily=Calibri;" vertex="1" parent="1">
          <mxGeometry x="701" y="609" width="58.6613" height="27" as="geometry" />
        </mxCell>
        <mxCell id="ddRNVsLwT3N909z3PBKY-54" value="9" style="ellipse;whiteSpace=wrap;html=1;aspect=fixed;strokeColor=#AE562C;strokeWidth=3;fontColor=#AE562C;fontSize=23;fontFamily=Calibri;fillColor=none;" vertex="1" parent="1">
          <mxGeometry x="970" y="350" width="40" height="40" as="geometry" />
        </mxCell>
        <mxCell id="ddRNVsLwT3N909z3PBKY-55" value="Content" style="rounded=0;whiteSpace=wrap;html=1;strokeColor=none;fillColor=none;fontColor=#AE562C;fontSize=16;spacing=0;align=center;fontFamily=Calibri;" vertex="1" parent="1">
          <mxGeometry x="701" y="699" width="58.6613" height="27" as="geometry" />
        </mxCell>
        <mxCell id="ddRNVsLwT3N909z3PBKY-57" value="7" style="ellipse;whiteSpace=wrap;html=1;aspect=fixed;strokeColor=#AE562C;strokeWidth=3;fontColor=#AE562C;fontSize=23;fillColor=none;fontFamily=Calibri;" vertex="1" parent="1">
          <mxGeometry x="627.29" y="265" width="40" height="40" as="geometry" />
        </mxCell>
        <mxCell id="ddRNVsLwT3N909z3PBKY-58" value="" style="shape=cylinder3;whiteSpace=wrap;html=1;boundedLbl=1;backgroundOutline=1;size=15;strokeWidth=3;fillColor=#2C5967;strokeColor=#FFFFFF;container=0;" vertex="1" parent="1">
          <mxGeometry x="494.42999999999995" y="102.00079999999998" width="60" height="70" as="geometry" />
        </mxCell>
        <mxCell id="ddRNVsLwT3N909z3PBKY-59" value="" style="shape=image;verticalLabelPosition=bottom;labelBackgroundColor=default;verticalAlign=top;aspect=fixed;imageAspect=0;image=data:image/svg+xml,PHN2ZyB4bWxucz0iaHR0cDovL3d3dy53My5vcmcvMjAwMC9zdmciIHZpZXdCb3g9IjAgMCAyODggMjg4IiBpZD0iQVJUIj48ZGVmcz48c3R5bGU+LmNscy0xe2ZpbGw6I2ZjZmJmYTt9PC9zdHlsZT48L2RlZnM+PHBhdGggZD0iTTIyNSw4OC4yNFY2MGExNywxNywwLDAsMC0xNy0xN2gtNmExNywxNywwLDAsMC0xNywxN1Y3OS4wNkExNi45MSwxNi45MSwwLDAsMSwxODksOTB2Nmg1Ljk0YTEzLjIzLDEzLjIzLDAsMCwwLDIwLjEyLDBIMjIyYTEzLDEzLDAsMCwxLDEzLDEzdjQxaC02VjExNWgtOHYzMkgxODl2OGgzMnY0MUgxODlWMTY2aC04djM4aDZ2NTFoMzZWMjA0aDZWMTcyaDE0VjEwOUEyMSwyMSwwLDAsMCwyMjUsODguMjRaTTE5Ni43Miw3My42OEExMS44MywxMS44MywwLDAsMSwxOTMuMDUsNjZhMTguMjYsMTguMjYsMCwwLDAsMi41NS4xOSwxNi45NCwxNi45NCwwLDAsMCw5LjQtMi44OEExNi44NiwxNi44NiwwLDAsMCwyMTYuOTEsNjZhMTIuMzIsMTIuMzIsMCwwLDEtMTEuMzMsMTFBMTEuOTEsMTEuOTEsMCwwLDEsMTk2LjcyLDczLjY4Wk0yMDIsNTFoNmE5LDksMCwwLDEsOC43NCw2Ljg4Yy0xLjg3LjQ4LTUuMzguNzEtOS0yLjYzTDIwNSw1Mi44bC0yLjY5LDIuNDVjLTMuNjgsMy4zNS03LjE5LDMuMTEtOSwyLjYyQTksOSwwLDAsMSwyMDIsNTFabTMsNDEuNjRhNS4xNSw1LjE1LDAsMCwxLTQtMS44NlY4NC42YTIwLjMsMjAuMywwLDAsMCw0LC40bDEsMGExOSwxOSwwLDAsMCwzLS40MXY2LjIxQTUuMTUsNS4xNSwwLDAsMSwyMDUsOTIuNjRaTTIwMSwyMDR2MjloLTZWMjA0Wm0tNiwzN2g2djZoLTZabTE0LDZ2LTZoNnY2Wm02LTE0aC02VjIwNGg2Wm0xNC02OXYtNmg2djZaTTk3LDE5Nkg2NVYxNTVIOTd2LThIODZWOTkuNjhBMTMsMTMsMCwwLDAsOTEuMDYsOTZIOTdWODljMC0uMzQsMC0uNjcsMC0xSDkzVjgzaDhWNjBBMTcsMTcsMCwwLDAsODQsNDNINzhBMTcsMTcsMCwwLDAsNjEsNjBWODNoOHY1SDY0YTIxLDIxLDAsMCwwLTIxLDIxdjYzSDU3djMyaDZ2NTFIOTlWMjA0aDZWMTY2SDk3Wk04OS4yOCw3My42OEExMiwxMiwwLDAsMSw4MC40Miw3NywxMi4zMiwxMi4zMiwwLDAsMSw2OS4wOSw2NiwxNi44NiwxNi44NiwwLDAsMCw4MSw2My4yN2ExNi45NCwxNi45NCwwLDAsMCw5LjQsMi44OEExOC4yNiwxOC4yNiwwLDAsMCw5Myw2NiwxMS44MywxMS44MywwLDAsMSw4OS4yOCw3My42OFpNNzcsODQuNTdBMTksMTksMCwwLDAsODAsODVsMSwwYTIwLjMsMjAuMywwLDAsMCw0LS40djYuMThhNS4yMyw1LjIzLDAsMCwxLTgsMFpNNzgsNTFoNmE5LDksMCwwLDEsOC43NCw2Ljg3Yy0xLjg2LjQ5LTUuMzcuNzQtOS0yLjYyTDgxLDUyLjhsLTIuNywyLjQ1Yy0zLjY4LDMuMzYtNy4xOSwzLjExLTksMi42M0E5LDksMCwwLDEsNzgsNTFaTTY0LDk2aDYuOTRBMTMsMTMsMCwwLDAsNzgsMTAwLjNWMTQ3SDY1VjExNUg1N3YzNUg1MVYxMDlBMTMsMTMsMCwwLDEsNjQsOTZaTTUxLDE2NHYtNmg2djZabTI2LDQwdjI5SDcxVjIwNFptLTYsMzdoNnY2SDcxWm0xNCw2di02aDZ2NlptNi0xNEg4NVYyMDRoNlptNzgsMTRWMTYwaDE0VjkyYTE2LDE2LDAsMCwwLTE2LTE2SDE1N1Y2Ny4yN0ExOS44MywxOS44MywwLDAsMCwxNjMsNTNWMzFIMTMyYTksOSwwLDAsMC05LDlWNTIuNTVhMjAuNjYsMjAuNjYsMCwwLDAsNiwxNC42MVY3NkgxMTlhMTYsMTYsMCwwLDAtMTYsMTZ2NjhoMTR2ODdoMGwtOCw0djRoNjh2LTRsLTgtNFptMC05NXYtNmg2djZabTYtNjB2NDZoLTZWMTAzaC04djQ2LjI4YTI0LjQ3LDI0LjQ3LDAsMCwxLTUuMTUtMS45NUMxNDkuOSwxNDQuMjIsMTQ3LDEzOS4yLDE0NywxMzJWMTAxLjY2TDE2NC42Niw4NEgxNjdBOCw4LDAsMCwxLDE3NSw5MlpNMTMxLDUyLjU1VjUyaDE2YTE1Ljg2LDE1Ljg2LDAsMCwwLDgtMi4xN1Y1M2ExMS44NywxMS44NywwLDAsMS0zLjcyLDguNjhBMTIsMTIsMCwwLDEsMTQyLjQyLDY1QzEzNi4xMiw2NC42OSwxMzEsNTkuMTEsMTMxLDUyLjU1Wk0xNDcsODRoNi4zNEwxNDcsOTAuMzRabS04LDYuMzRMMTMyLjY2LDg0SDEzOVpNMTMyLDM5aDIyLjQxQTgsOCwwLDAsMSwxNDcsNDRIMTMxVjQwQTEsMSwwLDAsMSwxMzIsMzlabTEwLDM0LDEsMGEyMCwyMCwwLDAsMCw2LS45MlY3NkgxMzd2LTRBMTkuODksMTkuODksMCwwLDAsMTQyLDczWk0xMTksODRoMi4zNEwxMzksMTAxLjY2VjEzMmMwLDcuMTItMi44MywxMi4wOS04LjY0LDE1LjIyYTI0LjcyLDI0LjcyLDAsMCwxLTUuMzYsMi4wNlYxMDNoLTh2MzVoLTZWOTJBOCw4LDAsMCwxLDExOSw4NFptLTgsNjh2LTZoNnY2Wm0zOCw5NWgtMlYxNjRoLTh2ODNIMTI1VjE1Ny41NGM2LTEuMTIsMTMuNDgtNC4zNiwxOC0xMS4xOSw0LjUyLDYuODMsMTIsMTAuMDcsMTgsMTEuMTlWMjQ3WiIgY2xhc3M9ImNscy0xIi8+PC9zdmc+;container=0;" vertex="1" parent="1">
          <mxGeometry x="509.46999999999997" y="137.08079999999995" width="29.92" height="29.92" as="geometry" />
        </mxCell>
        <mxCell id="ddRNVsLwT3N909z3PBKY-60" value="" style="endArrow=block;html=1;rounded=0;strokeWidth=3;endFill=1;startArrow=none;startFill=0;strokeColor=#2C5967;" edge="1" parent="1">
          <mxGeometry width="50" height="50" relative="1" as="geometry">
            <mxPoint x="525.12" y="230" as="sourcePoint" />
            <mxPoint x="524.95" y="172" as="targetPoint" />
          </mxGeometry>
        </mxCell>
        <mxCell id="ddRNVsLwT3N909z3PBKY-61" value="3" style="ellipse;whiteSpace=wrap;html=1;aspect=fixed;strokeColor=#2C5967;strokeWidth=3;fontColor=#312D2A;fontSize=23;fillColor=none;fontFamily=Calibri;" vertex="1" parent="1">
          <mxGeometry x="475.2899999999999" y="184" width="40" height="40" as="geometry" />
        </mxCell>
        <mxCell id="ddRNVsLwT3N909z3PBKY-62" value="" style="shape=image;verticalLabelPosition=bottom;labelBackgroundColor=default;verticalAlign=top;aspect=fixed;imageAspect=0;image=data:image/svg+xml,PHN2ZyB4bWxucz0iaHR0cDovL3d3dy53My5vcmcvMjAwMC9zdmciIHZpZXdCb3g9IjAgMCA0MiA0MiIgZGF0YS1uYW1lPSJMYXllciAxIiBpZD0iTGF5ZXJfMSI+JiN4YTsgICAgPGRlZnM+JiN4YTsgICAgICAgIDxzdHlsZT4mI3hhOyAgICAgICAgICAgIC5jbHMtMXtmaWxsOiNmZmZ9LmNscy0ye2ZpbGw6Izc1OUM2Q30mI3hhOyAgICAgICAgPC9zdHlsZT4mI3hhOyAgICA8L2RlZnM+JiN4YTsgICAgPHJlY3Qgcng9IjIuMzgiIGhlaWdodD0iNDEiIHdpZHRoPSI0MSIgeT0iLjUiIHg9Ii41IiBjbGFzcz0iY2xzLTEiLz4mI3hhOyAgICA8cGF0aCBkPSJNMzkuMTMgMUExLjg4IDEuODggMCAwIDEgNDEgMi44OHYzNi4yNUExLjg3IDEuODcgMCAwIDEgMzkuMTMgNDFIMi44OEExLjg4IDEuODggMCAwIDEgMSAzOS4xM1YyLjg4QTEuODggMS44OCAwIDAgMSAyLjg4IDFoMzYuMjVtMC0xSDIuODhBMi44OCAyLjg4IDAgMCAwIDAgMi44OHYzNi4yNUEyLjg4IDIuODggMCAwIDAgMi44OCA0MmgzNi4yNUEyLjg4IDIuODggMCAwIDAgNDIgMzkuMTNWMi44OEEyLjg4IDIuODggMCAwIDAgMzkuMTMgMFoiIGNsYXNzPSJjbHMtMSIvPiYjeGE7ICAgIDxwYXRoIGQ9Ik0zOS4xMyAxSDIuODhBMS44OCAxLjg4IDAgMCAwIDEgMi44OHYzNi4yNUExLjg4IDEuODggMCAwIDAgMi44OCA0MWgzNi4yNUExLjg3IDEuODcgMCAwIDAgNDEgMzkuMTNWMi44OEExLjg4IDEuODggMCAwIDAgMzkuMTMgMVpNMi44OCAyLjY3aDM2LjI1YS4yLjIgMCAwIDEgLjIuMjF2NC43OUgyLjY3VjIuODhhLjIxLjIxIDAgMCAxIC4yMS0uMjFabTM2LjI1IDM2LjY2SDIuODhhLjIuMiAwIDAgMS0uMjEtLjJWOS4zM2gzNi42NnYyOS44YS4yLjIgMCAwIDEtLjIuMloiIGNsYXNzPSJjbHMtMiIvPiYjeGE7ICAgIDxjaXJjbGUgcj0iMS4wNCIgY3k9IjUuMzEiIGN4PSI1LjQ4IiBjbGFzcz0iY2xzLTIiLz4mI3hhOyAgICA8Y2lyY2xlIHI9IjEuMDQiIGN5PSI1LjMxIiBjeD0iOS4xNiIgY2xhc3M9ImNscy0yIi8+JiN4YTsgICAgPGNpcmNsZSByPSIxLjA0IiBjeT0iNS4zMSIgY3g9IjEyLjc3IiBjbGFzcz0iY2xzLTIiLz4mI3hhOyAgICA8cGF0aCBkPSJNMjEgMTcuOWE2LjIzIDYuMjMgMCAxIDAgNi4yMyA2LjIzQTYuMjMgNi4yMyAwIDAgMCAyMSAxNy45Wm0wIDEwLjc5YTQuNTcgNC41NyAwIDEgMSA0LjU2LTQuNTZBNC41NiA0LjU2IDAgMCAxIDIxIDI4LjY5WiIgY2xhc3M9ImNscy0yIi8+JiN4YTsgICAgPHBhdGggZD0ibTMwLjY3IDE5Ljc0IDItMi41LTQuNzgtNC43OS0yLjUgMi0uNjUtLjI3LS4zNi0zLjE4aC02Ljc2bC0uMzYgMy4xOC0uNjUuMjctMi41LTItNC43OCA0Ljc5IDIgMi41Yy0uMS4yMS0uMTkuNDMtLjI3LjY1bC0zLjE4LjM1djYuNzdsMy4xOC4zNWMuMDguMjIuMTcuNDQuMjcuNjVsLTIgMi41IDQuNzggNC43OSAyLjUtMiAuNjUuMjcuMzYgMy4xOGg2Ljc2bC4zNi0zLjE4LjY1LS4yNyAyLjUgMiA0Ljc4LTQuOC0yLTIuNWMuMS0uMjEuMTktLjQzLjI3LS42NWwzLjE5LS4zNXYtNi43NmwtMy4xOS0uMzVjLS4wOC0uMjItLjE3LS4zOS0uMjctLjY1Wk0zMi40NiAyNmwtMi43Ni4zLS4xNy41MmE5IDkgMCAwIDEtLjU4IDEuNGwtLjI1LjQ4IDEuNzQgMi4xNy0yLjY3IDIuNjctMi4xNy0xLjcxLS40OS4yNWE5LjE1IDkuMTUgMCAwIDEtMS40LjU4bC0uNTEuMTYtLjMxIDIuNzZoLTMuNzhsLS4zMS0yLjc2LS41MS0uMTZhOS4xNSA5LjE1IDAgMCAxLTEuNC0uNThsLS40OS0uMjUtMi4xNyAxLjczLTIuNjctMi42NyAxLjc0LTIuMTctLjI1LS40OGE5IDkgMCAwIDEtLjU4LTEuNGwtLjE3LS41Mkw5LjU0IDI2di0zLjc3bDIuNzYtLjMuMTctLjUyYTkgOSAwIDAgMSAuNTgtMS40bC4yNS0uNDgtMS43NC0yLjE3IDIuNjctMi42NyAyLjE3IDEuNzMuNDktLjI1YTkuMTUgOS4xNSAwIDAgMSAxLjQtLjU4bC41MS0uMTYuMzEtMi43NmgzLjc4bC4zMSAyLjc2LjUxLjE2YTkuMTUgOS4xNSAwIDAgMSAxLjQuNThsLjQ5LjI1IDIuMTctMS43MyAyLjY3IDIuNjctMS43NCAyLjE3LjMuNDdhOSA5IDAgMCAxIC41OCAxLjRsLjE3LjUyIDIuNzYuM1oiIGNsYXNzPSJjbHMtMiIvPiYjeGE7PC9zdmc+;" vertex="1" parent="1">
          <mxGeometry x="50" y="248.99540000000002" width="42" height="42" as="geometry" />
        </mxCell>
        <mxCell id="ddRNVsLwT3N909z3PBKY-63" value="" style="shape=image;verticalLabelPosition=bottom;labelBackgroundColor=default;verticalAlign=top;aspect=fixed;imageAspect=0;image=data:image/svg+xml,PHN2ZyB4bWxucz0iaHR0cDovL3d3dy53My5vcmcvMjAwMC9zdmciIHZpZXdCb3g9IjAgMCA0MiA0MiIgZGF0YS1uYW1lPSJMYXllciAxIiBpZD0iTGF5ZXJfMSI+JiN4YTsgICAgPGRlZnM+JiN4YTsgICAgICAgIDxzdHlsZT4mI3hhOyAgICAgICAgICAgIC5jbHMtMXtmaWxsOiNmZmZ9LmNscy0ye2ZpbGw6I0FFNTYyQ30mI3hhOyAgICAgICAgPC9zdHlsZT4mI3hhOyAgICA8L2RlZnM+JiN4YTsgICAgPHJlY3Qgcng9IjIuMzgiIGhlaWdodD0iNDEiIHdpZHRoPSI0MSIgeT0iLjUiIHg9Ii41IiBjbGFzcz0iY2xzLTEiLz4mI3hhOyAgICA8cGF0aCBkPSJNMzkuMTMgMUExLjg4IDEuODggMCAwIDEgNDEgMi44OHYzNi4yNUExLjg3IDEuODcgMCAwIDEgMzkuMTMgNDFIMi44OEExLjg4IDEuODggMCAwIDEgMSAzOS4xM1YyLjg4QTEuODggMS44OCAwIDAgMSAyLjg4IDFoMzYuMjVtMC0xSDIuODhBMi44OCAyLjg4IDAgMCAwIDAgMi44OHYzNi4yNUEyLjg4IDIuODggMCAwIDAgMi44OCA0MmgzNi4yNUEyLjg4IDIuODggMCAwIDAgNDIgMzkuMTNWMi44OEEyLjg4IDIuODggMCAwIDAgMzkuMTMgMFoiIGNsYXNzPSJjbHMtMSIvPiYjeGE7ICAgIDxwYXRoIGQ9Ik0zOS4xMyAxSDIuODhBMS44OCAxLjg4IDAgMCAwIDEgMi44OHYzNi4yNUExLjg4IDEuODggMCAwIDAgMi44OCA0MWgzNi4yNUExLjg3IDEuODcgMCAwIDAgNDEgMzkuMTNWMi44OEExLjg4IDEuODggMCAwIDAgMzkuMTMgMVpNMi44OCAyLjY3aDM2LjI1YS4yLjIgMCAwIDEgLjIuMjF2NC43OUgyLjY3VjIuODhhLjIxLjIxIDAgMCAxIC4yMS0uMjFabTM2LjI1IDM2LjY2SDIuODhhLjIuMiAwIDAgMS0uMjEtLjJWOS4zM2gzNi42NnYyOS44YS4yLjIgMCAwIDEtLjIuMloiIGNsYXNzPSJjbHMtMiIvPiYjeGE7ICAgIDxjaXJjbGUgcj0iMS4wNCIgY3k9IjUuMzEiIGN4PSI1LjQ4IiBjbGFzcz0iY2xzLTIiLz4mI3hhOyAgICA8Y2lyY2xlIHI9IjEuMDQiIGN5PSI1LjMxIiBjeD0iOS4xNiIgY2xhc3M9ImNscy0yIi8+JiN4YTsgICAgPGNpcmNsZSByPSIxLjA0IiBjeT0iNS4zMSIgY3g9IjEyLjc3IiBjbGFzcz0iY2xzLTIiLz4mI3hhOyAgICA8cGF0aCBkPSJNMjEgMTcuOWE2LjIzIDYuMjMgMCAxIDAgNi4yMyA2LjIzQTYuMjMgNi4yMyAwIDAgMCAyMSAxNy45Wm0wIDEwLjc5YTQuNTcgNC41NyAwIDEgMSA0LjU2LTQuNTZBNC41NiA0LjU2IDAgMCAxIDIxIDI4LjY5WiIgY2xhc3M9ImNscy0yIi8+JiN4YTsgICAgPHBhdGggZD0ibTMwLjY3IDE5Ljc0IDItMi41LTQuNzgtNC43OS0yLjUgMi0uNjUtLjI3LS4zNi0zLjE4aC02Ljc2bC0uMzYgMy4xOC0uNjUuMjctMi41LTItNC43OCA0Ljc5IDIgMi41Yy0uMS4yMS0uMTkuNDMtLjI3LjY1bC0zLjE4LjM1djYuNzdsMy4xOC4zNWMuMDguMjIuMTcuNDQuMjcuNjVsLTIgMi41IDQuNzggNC43OSAyLjUtMiAuNjUuMjcuMzYgMy4xOGg2Ljc2bC4zNi0zLjE4LjY1LS4yNyAyLjUgMiA0Ljc4LTQuOC0yLTIuNWMuMS0uMjEuMTktLjQzLjI3LS42NWwzLjE5LS4zNXYtNi43NmwtMy4xOS0uMzVjLS4wOC0uMjItLjE3LS4zOS0uMjctLjY1Wk0zMi40NiAyNmwtMi43Ni4zLS4xNy41MmE5IDkgMCAwIDEtLjU4IDEuNGwtLjI1LjQ4IDEuNzQgMi4xNy0yLjY3IDIuNjctMi4xNy0xLjcxLS40OS4yNWE5LjE1IDkuMTUgMCAwIDEtMS40LjU4bC0uNTEuMTYtLjMxIDIuNzZoLTMuNzhsLS4zMS0yLjc2LS41MS0uMTZhOS4xNSA5LjE1IDAgMCAxLTEuNC0uNThsLS40OS0uMjUtMi4xNyAxLjczLTIuNjctMi42NyAxLjc0LTIuMTctLjI1LS40OGE5IDkgMCAwIDEtLjU4LTEuNGwtLjE3LS41Mkw5LjU0IDI2di0zLjc3bDIuNzYtLjMuMTctLjUyYTkgOSAwIDAgMSAuNTgtMS40bC4yNS0uNDgtMS43NC0yLjE3IDIuNjctMi42NyAyLjE3IDEuNzMuNDktLjI1YTkuMTUgOS4xNSAwIDAgMSAxLjQtLjU4bC41MS0uMTYuMzEtMi43NmgzLjc4bC4zMSAyLjc2LjUxLjE2YTkuMTUgOS4xNSAwIDAgMSAxLjQuNThsLjQ5LjI1IDIuMTctMS43MyAyLjY3IDIuNjctMS43NCAyLjE3LjMuNDdhOSA5IDAgMCAxIC41OCAxLjRsLjE3LjUyIDIuNzYuM1oiIGNsYXNzPSJjbHMtMiIvPiYjeGE7PC9zdmc+;" vertex="1" parent="1">
          <mxGeometry x="790" y="243.99540000000002" width="42" height="42" as="geometry" />
        </mxCell>
      </root>
    </mxGraphModel>
  </diagram>
  <diagram id="zQ1Smbnr-1pLLJGxjy8A" name="sso-principles-en">
    <mxGraphModel dx="1114" dy="803" grid="1" gridSize="10" guides="1" tooltips="1" connect="1" arrows="1" fold="1" page="1" pageScale="1" pageWidth="850" pageHeight="1100" math="0" shadow="0">
      <root>
        <mxCell id="0" />
        <mxCell id="1" parent="0" />
        <mxCell id="1-H0sL6W1p6-WdoYktWv-1" value="Access&lt;br&gt;&lt;div style=&quot;&quot;&gt;&lt;span style=&quot;background-color: initial;&quot;&gt;Server&lt;/span&gt;&lt;/div&gt;" style="rounded=0;whiteSpace=wrap;html=1;strokeColor=#312D2A;fillColor=#2C5967;fontColor=#FFFFFF;fontSize=23;align=left;spacing=7;fontFamily=Calibri;" vertex="1" parent="1">
          <mxGeometry x="358.48544999999996" y="230" width="331.8891" height="80" as="geometry" />
        </mxCell>
        <mxCell id="1-H0sL6W1p6-WdoYktWv-2" value="6" style="ellipse;whiteSpace=wrap;html=1;aspect=fixed;strokeColor=#AE562C;strokeWidth=3;fontColor=#AE562C;fontSize=23;fontFamily=Calibri;fillColor=none;" vertex="1" parent="1">
          <mxGeometry x="573" y="350" width="40" height="40" as="geometry" />
        </mxCell>
        <mxCell id="1-H0sL6W1p6-WdoYktWv-3" value="TOKEN" style="rounded=0;whiteSpace=wrap;html=1;strokeColor=#759C6C;fillColor=#759C6C;fontColor=#FFFFFF;fontSize=15;direction=west;rotation=-90;" vertex="1" parent="1">
          <mxGeometry x="340.34000000000003" y="403.03999999999996" width="120" height="29.9212" as="geometry" />
        </mxCell>
        <mxCell id="1-H0sL6W1p6-WdoYktWv-4" value="8" style="ellipse;whiteSpace=wrap;html=1;aspect=fixed;strokeColor=#AE562C;strokeWidth=3;fontColor=#AE562C;fontSize=23;fontFamily=Calibri;fillColor=none;" vertex="1" parent="1">
          <mxGeometry x="675" y="350" width="40" height="40" as="geometry" />
        </mxCell>
        <mxCell id="1-H0sL6W1p6-WdoYktWv-5" value="" style="rounded=0;whiteSpace=wrap;html=1;strokeWidth=3;strokeColor=#759C6C;fillColor=none;" vertex="1" parent="1">
          <mxGeometry x="40" y="234.99540000000002" width="229.92079999999999" height="70" as="geometry" />
        </mxCell>
        <mxCell id="1-H0sL6W1p6-WdoYktWv-6" value="Application 1" style="text;strokeColor=none;align=center;fillColor=none;html=1;verticalAlign=middle;whiteSpace=wrap;rounded=0;fontSize=22;fontColor=#759C6C;fontFamily=Calibri;" vertex="1" parent="1">
          <mxGeometry x="90" y="259.5" width="180" height="21" as="geometry" />
        </mxCell>
        <mxCell id="1-H0sL6W1p6-WdoYktWv-7" value="" style="endArrow=none;html=1;rounded=0;strokeWidth=3;strokeColor=#759C6C;exitX=0;exitY=0.5;exitDx=0;exitDy=0;" edge="1" parent="1" source="1-H0sL6W1p6-WdoYktWv-3">
          <mxGeometry width="50" height="50" relative="1" as="geometry">
            <mxPoint x="400" y="341" as="sourcePoint" />
            <mxPoint x="400" y="320" as="targetPoint" />
          </mxGeometry>
        </mxCell>
        <mxCell id="1-H0sL6W1p6-WdoYktWv-8" value="" style="endArrow=none;html=1;rounded=0;strokeWidth=3;strokeColor=#759C6C;" edge="1" parent="1">
          <mxGeometry width="50" height="50" relative="1" as="geometry">
            <mxPoint x="400" y="514.96" as="sourcePoint" />
            <mxPoint x="400" y="478" as="targetPoint" />
          </mxGeometry>
        </mxCell>
        <mxCell id="1-H0sL6W1p6-WdoYktWv-9" value="" style="endArrow=none;html=1;rounded=0;strokeWidth=3;strokeColor=#759C6C;" edge="1" parent="1">
          <mxGeometry width="50" height="50" relative="1" as="geometry">
            <mxPoint x="280" y="547" as="sourcePoint" />
            <mxPoint x="360" y="547" as="targetPoint" />
          </mxGeometry>
        </mxCell>
        <mxCell id="1-H0sL6W1p6-WdoYktWv-10" value="" style="endArrow=none;html=1;rounded=0;strokeWidth=3;edgeStyle=orthogonalEdgeStyle;endFill=0;strokeColor=#AE562C;" edge="1" parent="1">
          <mxGeometry width="50" height="50" relative="1" as="geometry">
            <mxPoint x="702" y="592" as="sourcePoint" />
            <mxPoint x="850" y="320" as="targetPoint" />
          </mxGeometry>
        </mxCell>
        <mxCell id="1-H0sL6W1p6-WdoYktWv-11" value="" style="endArrow=none;html=1;rounded=0;strokeWidth=3;strokeColor=#759C6C;dashed=1;fontFamily=Calibri;" edge="1" parent="1">
          <mxGeometry width="50" height="50" relative="1" as="geometry">
            <mxPoint x="360" y="590" as="sourcePoint" />
            <mxPoint x="437" y="590" as="targetPoint" />
          </mxGeometry>
        </mxCell>
        <mxCell id="1-H0sL6W1p6-WdoYktWv-12" value="" style="endArrow=none;html=1;rounded=0;strokeWidth=3;strokeColor=#759C6C;" edge="1" parent="1">
          <mxGeometry width="50" height="50" relative="1" as="geometry">
            <mxPoint x="280" y="590" as="sourcePoint" />
            <mxPoint x="360" y="590" as="targetPoint" />
          </mxGeometry>
        </mxCell>
        <mxCell id="1-H0sL6W1p6-WdoYktWv-13" value="" style="endArrow=none;html=1;rounded=0;strokeWidth=3;dashed=1;strokeColor=#759C6C;fontFamily=Calibri;" edge="1" parent="1">
          <mxGeometry width="50" height="50" relative="1" as="geometry">
            <mxPoint x="400" y="547" as="sourcePoint" />
            <mxPoint x="400" y="519" as="targetPoint" />
          </mxGeometry>
        </mxCell>
        <mxCell id="1-H0sL6W1p6-WdoYktWv-14" value="" style="endArrow=none;html=1;rounded=0;strokeWidth=3;dashed=1;strokeColor=#759C6C;fontFamily=Calibri;" edge="1" parent="1">
          <mxGeometry width="50" height="50" relative="1" as="geometry">
            <mxPoint x="360" y="547" as="sourcePoint" />
            <mxPoint x="400" y="547" as="targetPoint" />
          </mxGeometry>
        </mxCell>
        <mxCell id="1-H0sL6W1p6-WdoYktWv-15" value="" style="shape=image;verticalLabelPosition=bottom;labelBackgroundColor=default;verticalAlign=top;aspect=fixed;imageAspect=0;image=data:image/svg+xml,PHN2ZyB4bWxucz0iaHR0cDovL3d3dy53My5vcmcvMjAwMC9zdmciIHZpZXdCb3g9IjAgMCAyODggMjg4IiBpZD0iQVJUIj48ZGVmcz48c3R5bGU+LmNscy0xe2ZpbGw6IzMxMmQyYTt9PC9zdHlsZT48L2RlZnM+PHBhdGggZD0iTTIyNSw4OC4yNFY2MGExNywxNywwLDAsMC0xNy0xN2gtNmExNywxNywwLDAsMC0xNywxN1Y3OS4wNkExNi45MSwxNi45MSwwLDAsMSwxODksOTB2Nmg1Ljk0YTEzLjIzLDEzLjIzLDAsMCwwLDIwLjEyLDBIMjIyYTEzLDEzLDAsMCwxLDEzLDEzdjQxaC02VjExNWgtOHYzMkgxODl2OGgzMnY0MUgxODlWMTY2aC04djM4aDZ2NTFoMzZWMjA0aDZWMTcyaDE0VjEwOUEyMSwyMSwwLDAsMCwyMjUsODguMjRaTTE5Ni43Miw3My42OEExMS44MywxMS44MywwLDAsMSwxOTMuMDUsNjZhMTguMjYsMTguMjYsMCwwLDAsMi41NS4xOSwxNi45NCwxNi45NCwwLDAsMCw5LjQtMi44OEExNi44NiwxNi44NiwwLDAsMCwyMTYuOTEsNjZhMTIuMzIsMTIuMzIsMCwwLDEtMTEuMzMsMTFBMTEuOTEsMTEuOTEsMCwwLDEsMTk2LjcyLDczLjY4Wk0yMDIsNTFoNmE5LDksMCwwLDEsOC43NCw2Ljg4Yy0xLjg3LjQ4LTUuMzguNzEtOS0yLjYzTDIwNSw1Mi44bC0yLjY5LDIuNDVjLTMuNjgsMy4zNS03LjE5LDMuMTEtOSwyLjYyQTksOSwwLDAsMSwyMDIsNTFabTMsNDEuNjRhNS4xNSw1LjE1LDAsMCwxLTQtMS44NlY4NC42YTIwLjMsMjAuMywwLDAsMCw0LC40bDEsMGExOSwxOSwwLDAsMCwzLS40MXY2LjIxQTUuMTUsNS4xNSwwLDAsMSwyMDUsOTIuNjRaTTIwMSwyMDR2MjloLTZWMjA0Wm0tNiwzN2g2djZoLTZabTE0LDZ2LTZoNnY2Wm02LTE0aC02VjIwNGg2Wm0xNC02OXYtNmg2djZaTTk3LDE5Nkg2NVYxNTVIOTd2LThIODZWOTkuNjhBMTMsMTMsMCwwLDAsOTEuMDYsOTZIOTdWODljMC0uMzQsMC0uNjcsMC0xSDkzVjgzaDhWNjBBMTcsMTcsMCwwLDAsODQsNDNINzhBMTcsMTcsMCwwLDAsNjEsNjBWODNoOHY1SDY0YTIxLDIxLDAsMCwwLTIxLDIxdjYzSDU3djMyaDZ2NTFIOTlWMjA0aDZWMTY2SDk3Wk04OS4yOCw3My42OEExMiwxMiwwLDAsMSw4MC40Miw3NywxMi4zMiwxMi4zMiwwLDAsMSw2OS4wOSw2NiwxNi44NiwxNi44NiwwLDAsMCw4MSw2My4yN2ExNi45NCwxNi45NCwwLDAsMCw5LjQsMi44OEExOC4yNiwxOC4yNiwwLDAsMCw5Myw2NiwxMS44MywxMS44MywwLDAsMSw4OS4yOCw3My42OFpNNzcsODQuNTdBMTksMTksMCwwLDAsODAsODVsMSwwYTIwLjMsMjAuMywwLDAsMCw0LS40djYuMThhNS4yMyw1LjIzLDAsMCwxLTgsMFpNNzgsNTFoNmE5LDksMCwwLDEsOC43NCw2Ljg3Yy0xLjg2LjQ5LTUuMzcuNzQtOS0yLjYyTDgxLDUyLjhsLTIuNywyLjQ1Yy0zLjY4LDMuMzYtNy4xOSwzLjExLTksMi42M0E5LDksMCwwLDEsNzgsNTFaTTY0LDk2aDYuOTRBMTMsMTMsMCwwLDAsNzgsMTAwLjNWMTQ3SDY1VjExNUg1N3YzNUg1MVYxMDlBMTMsMTMsMCwwLDEsNjQsOTZaTTUxLDE2NHYtNmg2djZabTI2LDQwdjI5SDcxVjIwNFptLTYsMzdoNnY2SDcxWm0xNCw2di02aDZ2NlptNi0xNEg4NVYyMDRoNlptNzgsMTRWMTYwaDE0VjkyYTE2LDE2LDAsMCwwLTE2LTE2SDE1N1Y2Ny4yN0ExOS44MywxOS44MywwLDAsMCwxNjMsNTNWMzFIMTMyYTksOSwwLDAsMC05LDlWNTIuNTVhMjAuNjYsMjAuNjYsMCwwLDAsNiwxNC42MVY3NkgxMTlhMTYsMTYsMCwwLDAtMTYsMTZ2NjhoMTR2ODdoMGwtOCw0djRoNjh2LTRsLTgtNFptMC05NXYtNmg2djZabTYtNjB2NDZoLTZWMTAzaC04djQ2LjI4YTI0LjQ3LDI0LjQ3LDAsMCwxLTUuMTUtMS45NUMxNDkuOSwxNDQuMjIsMTQ3LDEzOS4yLDE0NywxMzJWMTAxLjY2TDE2NC42Niw4NEgxNjdBOCw4LDAsMCwxLDE3NSw5MlpNMTMxLDUyLjU1VjUyaDE2YTE1Ljg2LDE1Ljg2LDAsMCwwLDgtMi4xN1Y1M2ExMS44NywxMS44NywwLDAsMS0zLjcyLDguNjhBMTIsMTIsMCwwLDEsMTQyLjQyLDY1QzEzNi4xMiw2NC42OSwxMzEsNTkuMTEsMTMxLDUyLjU1Wk0xNDcsODRoNi4zNEwxNDcsOTAuMzRabS04LDYuMzRMMTMyLjY2LDg0SDEzOVpNMTMyLDM5aDIyLjQxQTgsOCwwLDAsMSwxNDcsNDRIMTMxVjQwQTEsMSwwLDAsMSwxMzIsMzlabTEwLDM0LDEsMGEyMCwyMCwwLDAsMCw2LS45MlY3NkgxMzd2LTRBMTkuODksMTkuODksMCwwLDAsMTQyLDczWk0xMTksODRoMi4zNEwxMzksMTAxLjY2VjEzMmMwLDcuMTItMi44MywxMi4wOS04LjY0LDE1LjIyYTI0LjcyLDI0LjcyLDAsMCwxLTUuMzYsMi4wNlYxMDNoLTh2MzVoLTZWOTJBOCw4LDAsMCwxLDExOSw4NFptLTgsNjh2LTZoNnY2Wm0zOCw5NWgtMlYxNjRoLTh2ODNIMTI1VjE1Ny41NGM2LTEuMTIsMTMuNDgtNC4zNiwxOC0xMS4xOSw0LjUyLDYuODMsMTIsMTAuMDcsMTgsMTEuMTlWMjQ3WiIgY2xhc3M9ImNscy0xIi8+PC9zdmc+;fontColor=#312D2A;" vertex="1" parent="1">
          <mxGeometry x="458.93499999999995" y="599" width="130.99" height="131" as="geometry" />
        </mxCell>
        <mxCell id="1-H0sL6W1p6-WdoYktWv-16" value="" style="endArrow=block;html=1;rounded=0;strokeWidth=3;endFill=1;startArrow=block;startFill=1;strokeColor=#2C5967;" edge="1" parent="1">
          <mxGeometry width="50" height="50" relative="1" as="geometry">
            <mxPoint x="523" y="592" as="sourcePoint" />
            <mxPoint x="524" y="320" as="targetPoint" />
          </mxGeometry>
        </mxCell>
        <mxCell id="1-H0sL6W1p6-WdoYktWv-17" value="2" style="ellipse;whiteSpace=wrap;html=1;aspect=fixed;strokeColor=#2C5967;strokeWidth=3;fontColor=#2C5967;fontSize=23;fontFamily=Calibri;fillColor=none;" vertex="1" parent="1">
          <mxGeometry x="531" y="350" width="40" height="40" as="geometry" />
        </mxCell>
        <mxCell id="1-H0sL6W1p6-WdoYktWv-18" value="" style="endArrow=none;html=1;rounded=0;strokeWidth=3;edgeStyle=orthogonalEdgeStyle;endFill=0;startArrow=block;startFill=1;strokeColor=#759C6C;" edge="1" parent="1">
          <mxGeometry width="50" height="50" relative="1" as="geometry">
            <mxPoint x="180" y="320" as="sourcePoint" />
            <mxPoint x="439" y="637" as="targetPoint" />
            <Array as="points">
              <mxPoint x="180" y="320" />
              <mxPoint x="180" y="690" />
            </Array>
          </mxGeometry>
        </mxCell>
        <mxCell id="1-H0sL6W1p6-WdoYktWv-19" value="" style="endArrow=none;html=1;rounded=0;strokeWidth=3;edgeStyle=orthogonalEdgeStyle;endFill=0;startArrow=none;startFill=0;strokeColor=#759C6C;" edge="1" parent="1">
          <mxGeometry width="50" height="50" relative="1" as="geometry">
            <mxPoint x="200" y="320" as="sourcePoint" />
            <mxPoint x="280" y="590" as="targetPoint" />
            <Array as="points">
              <mxPoint x="200" y="590" />
            </Array>
          </mxGeometry>
        </mxCell>
        <mxCell id="1-H0sL6W1p6-WdoYktWv-20" value="" style="endArrow=none;html=1;rounded=0;strokeWidth=3;edgeStyle=orthogonalEdgeStyle;endFill=0;startArrow=block;startFill=1;strokeColor=#759C6C;" edge="1" parent="1">
          <mxGeometry width="50" height="50" relative="1" as="geometry">
            <mxPoint x="220" y="320" as="sourcePoint" />
            <mxPoint x="281" y="547" as="targetPoint" />
            <Array as="points">
              <mxPoint x="220" y="320" />
              <mxPoint x="220" y="546" />
            </Array>
          </mxGeometry>
        </mxCell>
        <mxCell id="1-H0sL6W1p6-WdoYktWv-21" value="4" style="ellipse;whiteSpace=wrap;html=1;aspect=fixed;strokeColor=#759C6C;strokeWidth=3;fontColor=#759C6C;fontSize=23;fontFamily=Calibri;fillColor=none;" vertex="1" parent="1">
          <mxGeometry x="228.99999999999994" y="350" width="40" height="40" as="geometry" />
        </mxCell>
        <mxCell id="1-H0sL6W1p6-WdoYktWv-22" value="1" style="ellipse;whiteSpace=wrap;html=1;aspect=fixed;strokeColor=#759C6C;strokeWidth=3;fontColor=#759C6C;fontSize=23;fontFamily=Calibri;fillColor=none;" vertex="1" parent="1">
          <mxGeometry x="130" y="350" width="40" height="40" as="geometry" />
        </mxCell>
        <mxCell id="1-H0sL6W1p6-WdoYktWv-23" value="redirect" style="rounded=0;whiteSpace=wrap;html=1;strokeColor=none;fillColor=none;fontColor=#759C6C;fontSize=16;spacing=0;align=center;fontFamily=Calibri;" vertex="1" parent="1">
          <mxGeometry x="310" y="520" width="58.6613" height="27" as="geometry" />
        </mxCell>
        <mxCell id="1-H0sL6W1p6-WdoYktWv-24" value="redirect" style="rounded=0;whiteSpace=wrap;html=1;strokeColor=none;fillColor=none;fontColor=#AE562C;fontSize=16;align=center;fontFamily=Calibri;" vertex="1" parent="1">
          <mxGeometry x="701" y="564" width="58.6613" height="27" as="geometry" />
        </mxCell>
        <mxCell id="1-H0sL6W1p6-WdoYktWv-25" value="login" style="rounded=0;whiteSpace=wrap;html=1;strokeColor=none;fillColor=none;fontColor=#2C5967;fontSize=16;align=center;rotation=-90;fontFamily=Calibri;" vertex="1" parent="1">
          <mxGeometry x="508.2900000000001" y="444" width="58.6613" height="27" as="geometry" />
        </mxCell>
        <mxCell id="1-H0sL6W1p6-WdoYktWv-26" value="request" style="rounded=0;whiteSpace=wrap;html=1;strokeColor=none;fillColor=none;fontColor=#759C6C;fontSize=16;spacing=0;align=center;fontFamily=Calibri;" vertex="1" parent="1">
          <mxGeometry x="310" y="609" width="58.6613" height="27" as="geometry" />
        </mxCell>
        <mxCell id="1-H0sL6W1p6-WdoYktWv-27" value="5" style="ellipse;whiteSpace=wrap;html=1;aspect=fixed;strokeColor=#759C6C;strokeWidth=3;fontColor=#759C6C;fontSize=23;fontFamily=Calibri;fillColor=none;" vertex="1" parent="1">
          <mxGeometry x="40" y="350" width="40" height="40" as="geometry" />
        </mxCell>
        <mxCell id="1-H0sL6W1p6-WdoYktWv-28" value="Content" style="rounded=0;whiteSpace=wrap;html=1;strokeColor=none;fillColor=none;fontColor=#759C6C;fontSize=16;spacing=0;align=center;fontFamily=Calibri;" vertex="1" parent="1">
          <mxGeometry x="310" y="699" width="58.6613" height="27" as="geometry" />
        </mxCell>
        <mxCell id="1-H0sL6W1p6-WdoYktWv-29" value="" style="endArrow=block;html=1;rounded=0;strokeWidth=3;edgeStyle=orthogonalEdgeStyle;endFill=1;startArrow=none;startFill=0;strokeColor=#759C6C;" edge="1" parent="1">
          <mxGeometry width="50" height="50" relative="1" as="geometry">
            <mxPoint x="92" y="320" as="sourcePoint" />
            <mxPoint x="440" y="695" as="targetPoint" />
            <Array as="points">
              <mxPoint x="90" y="320" />
              <mxPoint x="90" y="695" />
            </Array>
          </mxGeometry>
        </mxCell>
        <mxCell id="1-H0sL6W1p6-WdoYktWv-30" value="" style="shape=cylinder3;whiteSpace=wrap;html=1;boundedLbl=1;backgroundOutline=1;size=15;strokeWidth=3;fillColor=#FFFFFF;strokeColor=#2C5967;" vertex="1" parent="1">
          <mxGeometry x="464.42999999999995" y="235" width="120" height="70" as="geometry" />
        </mxCell>
        <mxCell id="1-H0sL6W1p6-WdoYktWv-31" value="Session Database" style="rounded=0;whiteSpace=wrap;html=1;strokeColor=none;fillColor=none;fontColor=#312D2A;fontSize=12;direction=west;rotation=0;fontFamily=Calibri;" vertex="1" parent="1">
          <mxGeometry x="464.42999999999995" y="270" width="120" height="29.9212" as="geometry" />
        </mxCell>
        <mxCell id="1-H0sL6W1p6-WdoYktWv-32" value="" style="endArrow=none;html=1;rounded=0;strokeWidth=3;dashed=1;strokeColor=#759C6C;" edge="1" parent="1">
          <mxGeometry width="50" height="50" relative="1" as="geometry">
            <mxPoint x="437" y="590" as="sourcePoint" />
            <mxPoint x="437" y="519" as="targetPoint" />
          </mxGeometry>
        </mxCell>
        <mxCell id="1-H0sL6W1p6-WdoYktWv-33" value="redirect" style="rounded=0;whiteSpace=wrap;html=1;strokeColor=none;fillColor=none;fontColor=#759C6C;fontSize=16;spacing=0;align=center;fontFamily=Calibri;" vertex="1" parent="1">
          <mxGeometry x="310" y="561" width="58.6613" height="27" as="geometry" />
        </mxCell>
        <mxCell id="1-H0sL6W1p6-WdoYktWv-34" value="" style="endArrow=block;html=1;rounded=0;strokeWidth=3;strokeColor=#759C6C;endFill=1;" edge="1" parent="1">
          <mxGeometry width="50" height="50" relative="1" as="geometry">
            <mxPoint x="437" y="522" as="sourcePoint" />
            <mxPoint x="437" y="320" as="targetPoint" />
          </mxGeometry>
        </mxCell>
        <mxCell id="1-H0sL6W1p6-WdoYktWv-35" value="1" style="ellipse;whiteSpace=wrap;html=1;aspect=fixed;strokeColor=#759C6C;strokeWidth=3;fontColor=#759C6C;fontSize=23;fontFamily=Calibri;fillColor=none;" vertex="1" parent="1">
          <mxGeometry x="446" y="350" width="40" height="40" as="geometry" />
        </mxCell>
        <mxCell id="1-H0sL6W1p6-WdoYktWv-36" value="4" style="ellipse;whiteSpace=wrap;html=1;aspect=fixed;strokeColor=#759C6C;strokeWidth=3;fontColor=#759C6C;fontSize=23;fontFamily=Calibri;fillColor=none;" vertex="1" parent="1">
          <mxGeometry x="340.3399999999999" y="350" width="40" height="40" as="geometry" />
        </mxCell>
        <mxCell id="1-H0sL6W1p6-WdoYktWv-37" value="" style="rounded=0;whiteSpace=wrap;html=1;strokeWidth=3;strokeColor=#AE562C;fillColor=none;" vertex="1" parent="1">
          <mxGeometry x="780" y="229.99540000000002" width="229.92079999999999" height="70" as="geometry" />
        </mxCell>
        <mxCell id="1-H0sL6W1p6-WdoYktWv-38" value="Application 2" style="text;strokeColor=none;align=center;fillColor=none;html=1;verticalAlign=middle;whiteSpace=wrap;rounded=0;fontSize=22;fontColor=#AE562C;fontFamily=Calibri;" vertex="1" parent="1">
          <mxGeometry x="830" y="254.5" width="180" height="21" as="geometry" />
        </mxCell>
        <mxCell id="1-H0sL6W1p6-WdoYktWv-39" value="" style="endArrow=block;html=1;rounded=0;strokeWidth=3;strokeColor=#AE562C;endFill=1;" edge="1" parent="1">
          <mxGeometry width="50" height="50" relative="1" as="geometry">
            <mxPoint x="620" y="520" as="sourcePoint" />
            <mxPoint x="620" y="318" as="targetPoint" />
          </mxGeometry>
        </mxCell>
        <mxCell id="1-H0sL6W1p6-WdoYktWv-40" value="" style="endArrow=none;html=1;rounded=0;strokeWidth=3;dashed=1;strokeColor=#AE562C;fontFamily=Calibri;" edge="1" parent="1">
          <mxGeometry width="50" height="50" relative="1" as="geometry">
            <mxPoint x="620" y="590" as="sourcePoint" />
            <mxPoint x="620" y="519" as="targetPoint" />
          </mxGeometry>
        </mxCell>
        <mxCell id="1-H0sL6W1p6-WdoYktWv-41" value="" style="endArrow=none;html=1;rounded=0;strokeWidth=3;strokeColor=#AE562C;dashed=1;fontFamily=Calibri;" edge="1" parent="1">
          <mxGeometry width="50" height="50" relative="1" as="geometry">
            <mxPoint x="620" y="592" as="sourcePoint" />
            <mxPoint x="697" y="592" as="targetPoint" />
          </mxGeometry>
        </mxCell>
        <mxCell id="1-H0sL6W1p6-WdoYktWv-42" value="TOKEN" style="rounded=0;whiteSpace=wrap;html=1;strokeColor=#AE562C;fillColor=#AE562C;fontColor=#FFFFFF;fontSize=15;direction=west;rotation=-90;" vertex="1" parent="1">
          <mxGeometry x="589.9200000000001" y="403.03999999999996" width="120" height="29.9212" as="geometry" />
        </mxCell>
        <mxCell id="1-H0sL6W1p6-WdoYktWv-43" value="" style="endArrow=none;html=1;rounded=0;strokeWidth=3;strokeColor=#AE562C;exitX=0;exitY=0.5;exitDx=0;exitDy=0;" edge="1" parent="1" source="1-H0sL6W1p6-WdoYktWv-42">
          <mxGeometry width="50" height="50" relative="1" as="geometry">
            <mxPoint x="649.58" y="341" as="sourcePoint" />
            <mxPoint x="649.58" y="320" as="targetPoint" />
          </mxGeometry>
        </mxCell>
        <mxCell id="1-H0sL6W1p6-WdoYktWv-44" value="" style="endArrow=none;html=1;rounded=0;strokeWidth=3;strokeColor=#AE562C;" edge="1" parent="1">
          <mxGeometry width="50" height="50" relative="1" as="geometry">
            <mxPoint x="649.58" y="514.96" as="sourcePoint" />
            <mxPoint x="649.58" y="478" as="targetPoint" />
          </mxGeometry>
        </mxCell>
        <mxCell id="1-H0sL6W1p6-WdoYktWv-45" value="" style="endArrow=none;html=1;rounded=0;strokeWidth=3;dashed=1;strokeColor=#AE562C;fontFamily=Calibri;" edge="1" parent="1">
          <mxGeometry width="50" height="50" relative="1" as="geometry">
            <mxPoint x="649.58" y="547" as="sourcePoint" />
            <mxPoint x="649.58" y="519" as="targetPoint" />
          </mxGeometry>
        </mxCell>
        <mxCell id="1-H0sL6W1p6-WdoYktWv-46" value="&lt;br&gt;&lt;br&gt;&lt;br&gt;" style="endArrow=none;html=1;rounded=0;strokeWidth=3;edgeStyle=orthogonalEdgeStyle;endFill=0;startArrow=block;startFill=1;strokeColor=#AE562C;" edge="1" parent="1">
          <mxGeometry width="50" height="50" relative="1" as="geometry">
            <mxPoint x="873" y="320" as="sourcePoint" />
            <mxPoint x="620" y="637" as="targetPoint" />
            <Array as="points">
              <mxPoint x="873" y="320" />
              <mxPoint x="873" y="690" />
            </Array>
          </mxGeometry>
        </mxCell>
        <mxCell id="1-H0sL6W1p6-WdoYktWv-47" value="6" style="ellipse;whiteSpace=wrap;html=1;aspect=fixed;strokeColor=#AE562C;strokeWidth=3;fontColor=#AE562C;fontSize=23;fontFamily=Calibri;fillColor=none;" vertex="1" parent="1">
          <mxGeometry x="880" y="350" width="40" height="40" as="geometry" />
        </mxCell>
        <mxCell id="1-H0sL6W1p6-WdoYktWv-48" value="" style="endArrow=none;html=1;rounded=0;strokeWidth=3;edgeStyle=orthogonalEdgeStyle;endFill=0;startArrow=block;startFill=1;strokeColor=#AE562C;" edge="1" parent="1">
          <mxGeometry width="50" height="50" relative="1" as="geometry">
            <mxPoint x="827" y="320" as="sourcePoint" />
            <mxPoint x="766" y="547" as="targetPoint" />
            <Array as="points">
              <mxPoint x="827" y="320" />
              <mxPoint x="827" y="546" />
            </Array>
          </mxGeometry>
        </mxCell>
        <mxCell id="1-H0sL6W1p6-WdoYktWv-49" value="" style="endArrow=none;html=1;rounded=0;strokeWidth=3;strokeColor=#AE562C;fontFamily=Calibri;" edge="1" parent="1">
          <mxGeometry width="50" height="50" relative="1" as="geometry">
            <mxPoint x="689.72" y="547" as="sourcePoint" />
            <mxPoint x="769.72" y="547" as="targetPoint" />
          </mxGeometry>
        </mxCell>
        <mxCell id="1-H0sL6W1p6-WdoYktWv-50" value="" style="endArrow=none;html=1;rounded=0;strokeWidth=3;dashed=1;strokeColor=#AE562C;fontFamily=Calibri;" edge="1" parent="1">
          <mxGeometry width="50" height="50" relative="1" as="geometry">
            <mxPoint x="650" y="547" as="sourcePoint" />
            <mxPoint x="690" y="547" as="targetPoint" />
          </mxGeometry>
        </mxCell>
        <mxCell id="1-H0sL6W1p6-WdoYktWv-51" value="" style="endArrow=block;html=1;rounded=0;strokeWidth=3;edgeStyle=orthogonalEdgeStyle;endFill=1;startArrow=none;startFill=0;strokeColor=#AE562C;" edge="1" parent="1">
          <mxGeometry width="50" height="50" relative="1" as="geometry">
            <mxPoint x="960" y="320" as="sourcePoint" />
            <mxPoint x="620" y="695" as="targetPoint" />
            <Array as="points">
              <mxPoint x="960" y="695" />
            </Array>
          </mxGeometry>
        </mxCell>
        <mxCell id="1-H0sL6W1p6-WdoYktWv-52" value="redirect" style="rounded=0;whiteSpace=wrap;html=1;strokeColor=none;fillColor=none;fontColor=#AE562C;fontSize=16;align=center;fontFamily=Calibri;" vertex="1" parent="1">
          <mxGeometry x="701" y="520" width="58.6613" height="27" as="geometry" />
        </mxCell>
        <mxCell id="1-H0sL6W1p6-WdoYktWv-53" value="request" style="rounded=0;whiteSpace=wrap;html=1;strokeColor=none;fillColor=none;fontColor=#AE562C;fontSize=16;align=center;fontFamily=Calibri;" vertex="1" parent="1">
          <mxGeometry x="701" y="609" width="58.6613" height="27" as="geometry" />
        </mxCell>
        <mxCell id="1-H0sL6W1p6-WdoYktWv-54" value="9" style="ellipse;whiteSpace=wrap;html=1;aspect=fixed;strokeColor=#AE562C;strokeWidth=3;fontColor=#AE562C;fontSize=23;fontFamily=Calibri;fillColor=none;" vertex="1" parent="1">
          <mxGeometry x="970" y="350" width="40" height="40" as="geometry" />
        </mxCell>
        <mxCell id="1-H0sL6W1p6-WdoYktWv-55" value="Content" style="rounded=0;whiteSpace=wrap;html=1;strokeColor=none;fillColor=none;fontColor=#AE562C;fontSize=16;spacing=0;align=center;fontFamily=Calibri;" vertex="1" parent="1">
          <mxGeometry x="701" y="699" width="58.6613" height="27" as="geometry" />
        </mxCell>
        <mxCell id="1-H0sL6W1p6-WdoYktWv-56" value="7" style="ellipse;whiteSpace=wrap;html=1;aspect=fixed;strokeColor=#AE562C;strokeWidth=3;fontColor=#AE562C;fontSize=23;fillColor=none;fontFamily=Calibri;" vertex="1" parent="1">
          <mxGeometry x="627.29" y="265" width="40" height="40" as="geometry" />
        </mxCell>
        <mxCell id="1-H0sL6W1p6-WdoYktWv-57" value="" style="shape=cylinder3;whiteSpace=wrap;html=1;boundedLbl=1;backgroundOutline=1;size=15;strokeWidth=3;fillColor=#2C5967;strokeColor=#FFFFFF;container=0;" vertex="1" parent="1">
          <mxGeometry x="494.42999999999995" y="102.00079999999998" width="60" height="70" as="geometry" />
        </mxCell>
        <mxCell id="1-H0sL6W1p6-WdoYktWv-58" value="" style="shape=image;verticalLabelPosition=bottom;labelBackgroundColor=default;verticalAlign=top;aspect=fixed;imageAspect=0;image=data:image/svg+xml,PHN2ZyB4bWxucz0iaHR0cDovL3d3dy53My5vcmcvMjAwMC9zdmciIHZpZXdCb3g9IjAgMCAyODggMjg4IiBpZD0iQVJUIj48ZGVmcz48c3R5bGU+LmNscy0xe2ZpbGw6I2ZjZmJmYTt9PC9zdHlsZT48L2RlZnM+PHBhdGggZD0iTTIyNSw4OC4yNFY2MGExNywxNywwLDAsMC0xNy0xN2gtNmExNywxNywwLDAsMC0xNywxN1Y3OS4wNkExNi45MSwxNi45MSwwLDAsMSwxODksOTB2Nmg1Ljk0YTEzLjIzLDEzLjIzLDAsMCwwLDIwLjEyLDBIMjIyYTEzLDEzLDAsMCwxLDEzLDEzdjQxaC02VjExNWgtOHYzMkgxODl2OGgzMnY0MUgxODlWMTY2aC04djM4aDZ2NTFoMzZWMjA0aDZWMTcyaDE0VjEwOUEyMSwyMSwwLDAsMCwyMjUsODguMjRaTTE5Ni43Miw3My42OEExMS44MywxMS44MywwLDAsMSwxOTMuMDUsNjZhMTguMjYsMTguMjYsMCwwLDAsMi41NS4xOSwxNi45NCwxNi45NCwwLDAsMCw5LjQtMi44OEExNi44NiwxNi44NiwwLDAsMCwyMTYuOTEsNjZhMTIuMzIsMTIuMzIsMCwwLDEtMTEuMzMsMTFBMTEuOTEsMTEuOTEsMCwwLDEsMTk2LjcyLDczLjY4Wk0yMDIsNTFoNmE5LDksMCwwLDEsOC43NCw2Ljg4Yy0xLjg3LjQ4LTUuMzguNzEtOS0yLjYzTDIwNSw1Mi44bC0yLjY5LDIuNDVjLTMuNjgsMy4zNS03LjE5LDMuMTEtOSwyLjYyQTksOSwwLDAsMSwyMDIsNTFabTMsNDEuNjRhNS4xNSw1LjE1LDAsMCwxLTQtMS44NlY4NC42YTIwLjMsMjAuMywwLDAsMCw0LC40bDEsMGExOSwxOSwwLDAsMCwzLS40MXY2LjIxQTUuMTUsNS4xNSwwLDAsMSwyMDUsOTIuNjRaTTIwMSwyMDR2MjloLTZWMjA0Wm0tNiwzN2g2djZoLTZabTE0LDZ2LTZoNnY2Wm02LTE0aC02VjIwNGg2Wm0xNC02OXYtNmg2djZaTTk3LDE5Nkg2NVYxNTVIOTd2LThIODZWOTkuNjhBMTMsMTMsMCwwLDAsOTEuMDYsOTZIOTdWODljMC0uMzQsMC0uNjcsMC0xSDkzVjgzaDhWNjBBMTcsMTcsMCwwLDAsODQsNDNINzhBMTcsMTcsMCwwLDAsNjEsNjBWODNoOHY1SDY0YTIxLDIxLDAsMCwwLTIxLDIxdjYzSDU3djMyaDZ2NTFIOTlWMjA0aDZWMTY2SDk3Wk04OS4yOCw3My42OEExMiwxMiwwLDAsMSw4MC40Miw3NywxMi4zMiwxMi4zMiwwLDAsMSw2OS4wOSw2NiwxNi44NiwxNi44NiwwLDAsMCw4MSw2My4yN2ExNi45NCwxNi45NCwwLDAsMCw5LjQsMi44OEExOC4yNiwxOC4yNiwwLDAsMCw5Myw2NiwxMS44MywxMS44MywwLDAsMSw4OS4yOCw3My42OFpNNzcsODQuNTdBMTksMTksMCwwLDAsODAsODVsMSwwYTIwLjMsMjAuMywwLDAsMCw0LS40djYuMThhNS4yMyw1LjIzLDAsMCwxLTgsMFpNNzgsNTFoNmE5LDksMCwwLDEsOC43NCw2Ljg3Yy0xLjg2LjQ5LTUuMzcuNzQtOS0yLjYyTDgxLDUyLjhsLTIuNywyLjQ1Yy0zLjY4LDMuMzYtNy4xOSwzLjExLTksMi42M0E5LDksMCwwLDEsNzgsNTFaTTY0LDk2aDYuOTRBMTMsMTMsMCwwLDAsNzgsMTAwLjNWMTQ3SDY1VjExNUg1N3YzNUg1MVYxMDlBMTMsMTMsMCwwLDEsNjQsOTZaTTUxLDE2NHYtNmg2djZabTI2LDQwdjI5SDcxVjIwNFptLTYsMzdoNnY2SDcxWm0xNCw2di02aDZ2NlptNi0xNEg4NVYyMDRoNlptNzgsMTRWMTYwaDE0VjkyYTE2LDE2LDAsMCwwLTE2LTE2SDE1N1Y2Ny4yN0ExOS44MywxOS44MywwLDAsMCwxNjMsNTNWMzFIMTMyYTksOSwwLDAsMC05LDlWNTIuNTVhMjAuNjYsMjAuNjYsMCwwLDAsNiwxNC42MVY3NkgxMTlhMTYsMTYsMCwwLDAtMTYsMTZ2NjhoMTR2ODdoMGwtOCw0djRoNjh2LTRsLTgtNFptMC05NXYtNmg2djZabTYtNjB2NDZoLTZWMTAzaC04djQ2LjI4YTI0LjQ3LDI0LjQ3LDAsMCwxLTUuMTUtMS45NUMxNDkuOSwxNDQuMjIsMTQ3LDEzOS4yLDE0NywxMzJWMTAxLjY2TDE2NC42Niw4NEgxNjdBOCw4LDAsMCwxLDE3NSw5MlpNMTMxLDUyLjU1VjUyaDE2YTE1Ljg2LDE1Ljg2LDAsMCwwLDgtMi4xN1Y1M2ExMS44NywxMS44NywwLDAsMS0zLjcyLDguNjhBMTIsMTIsMCwwLDEsMTQyLjQyLDY1QzEzNi4xMiw2NC42OSwxMzEsNTkuMTEsMTMxLDUyLjU1Wk0xNDcsODRoNi4zNEwxNDcsOTAuMzRabS04LDYuMzRMMTMyLjY2LDg0SDEzOVpNMTMyLDM5aDIyLjQxQTgsOCwwLDAsMSwxNDcsNDRIMTMxVjQwQTEsMSwwLDAsMSwxMzIsMzlabTEwLDM0LDEsMGEyMCwyMCwwLDAsMCw2LS45MlY3NkgxMzd2LTRBMTkuODksMTkuODksMCwwLDAsMTQyLDczWk0xMTksODRoMi4zNEwxMzksMTAxLjY2VjEzMmMwLDcuMTItMi44MywxMi4wOS04LjY0LDE1LjIyYTI0LjcyLDI0LjcyLDAsMCwxLTUuMzYsMi4wNlYxMDNoLTh2MzVoLTZWOTJBOCw4LDAsMCwxLDExOSw4NFptLTgsNjh2LTZoNnY2Wm0zOCw5NWgtMlYxNjRoLTh2ODNIMTI1VjE1Ny41NGM2LTEuMTIsMTMuNDgtNC4zNiwxOC0xMS4xOSw0LjUyLDYuODMsMTIsMTAuMDcsMTgsMTEuMTlWMjQ3WiIgY2xhc3M9ImNscy0xIi8+PC9zdmc+;container=0;" vertex="1" parent="1">
          <mxGeometry x="509.46999999999997" y="137.08079999999995" width="29.92" height="29.92" as="geometry" />
        </mxCell>
        <mxCell id="1-H0sL6W1p6-WdoYktWv-59" value="" style="endArrow=block;html=1;rounded=0;strokeWidth=3;endFill=1;startArrow=none;startFill=0;strokeColor=#2C5967;" edge="1" parent="1">
          <mxGeometry width="50" height="50" relative="1" as="geometry">
            <mxPoint x="525.12" y="230" as="sourcePoint" />
            <mxPoint x="524.95" y="172" as="targetPoint" />
          </mxGeometry>
        </mxCell>
        <mxCell id="1-H0sL6W1p6-WdoYktWv-60" value="3" style="ellipse;whiteSpace=wrap;html=1;aspect=fixed;strokeColor=#2C5967;strokeWidth=3;fontColor=#312D2A;fontSize=23;fillColor=none;fontFamily=Calibri;" vertex="1" parent="1">
          <mxGeometry x="475.2899999999999" y="184" width="40" height="40" as="geometry" />
        </mxCell>
        <mxCell id="1-H0sL6W1p6-WdoYktWv-61" value="" style="shape=image;verticalLabelPosition=bottom;labelBackgroundColor=default;verticalAlign=top;aspect=fixed;imageAspect=0;image=data:image/svg+xml,PHN2ZyB4bWxucz0iaHR0cDovL3d3dy53My5vcmcvMjAwMC9zdmciIHZpZXdCb3g9IjAgMCA0MiA0MiIgZGF0YS1uYW1lPSJMYXllciAxIiBpZD0iTGF5ZXJfMSI+JiN4YTsgICAgPGRlZnM+JiN4YTsgICAgICAgIDxzdHlsZT4mI3hhOyAgICAgICAgICAgIC5jbHMtMXtmaWxsOiNmZmZ9LmNscy0ye2ZpbGw6Izc1OUM2Q30mI3hhOyAgICAgICAgPC9zdHlsZT4mI3hhOyAgICA8L2RlZnM+JiN4YTsgICAgPHJlY3Qgcng9IjIuMzgiIGhlaWdodD0iNDEiIHdpZHRoPSI0MSIgeT0iLjUiIHg9Ii41IiBjbGFzcz0iY2xzLTEiLz4mI3hhOyAgICA8cGF0aCBkPSJNMzkuMTMgMUExLjg4IDEuODggMCAwIDEgNDEgMi44OHYzNi4yNUExLjg3IDEuODcgMCAwIDEgMzkuMTMgNDFIMi44OEExLjg4IDEuODggMCAwIDEgMSAzOS4xM1YyLjg4QTEuODggMS44OCAwIDAgMSAyLjg4IDFoMzYuMjVtMC0xSDIuODhBMi44OCAyLjg4IDAgMCAwIDAgMi44OHYzNi4yNUEyLjg4IDIuODggMCAwIDAgMi44OCA0MmgzNi4yNUEyLjg4IDIuODggMCAwIDAgNDIgMzkuMTNWMi44OEEyLjg4IDIuODggMCAwIDAgMzkuMTMgMFoiIGNsYXNzPSJjbHMtMSIvPiYjeGE7ICAgIDxwYXRoIGQ9Ik0zOS4xMyAxSDIuODhBMS44OCAxLjg4IDAgMCAwIDEgMi44OHYzNi4yNUExLjg4IDEuODggMCAwIDAgMi44OCA0MWgzNi4yNUExLjg3IDEuODcgMCAwIDAgNDEgMzkuMTNWMi44OEExLjg4IDEuODggMCAwIDAgMzkuMTMgMVpNMi44OCAyLjY3aDM2LjI1YS4yLjIgMCAwIDEgLjIuMjF2NC43OUgyLjY3VjIuODhhLjIxLjIxIDAgMCAxIC4yMS0uMjFabTM2LjI1IDM2LjY2SDIuODhhLjIuMiAwIDAgMS0uMjEtLjJWOS4zM2gzNi42NnYyOS44YS4yLjIgMCAwIDEtLjIuMloiIGNsYXNzPSJjbHMtMiIvPiYjeGE7ICAgIDxjaXJjbGUgcj0iMS4wNCIgY3k9IjUuMzEiIGN4PSI1LjQ4IiBjbGFzcz0iY2xzLTIiLz4mI3hhOyAgICA8Y2lyY2xlIHI9IjEuMDQiIGN5PSI1LjMxIiBjeD0iOS4xNiIgY2xhc3M9ImNscy0yIi8+JiN4YTsgICAgPGNpcmNsZSByPSIxLjA0IiBjeT0iNS4zMSIgY3g9IjEyLjc3IiBjbGFzcz0iY2xzLTIiLz4mI3hhOyAgICA8cGF0aCBkPSJNMjEgMTcuOWE2LjIzIDYuMjMgMCAxIDAgNi4yMyA2LjIzQTYuMjMgNi4yMyAwIDAgMCAyMSAxNy45Wm0wIDEwLjc5YTQuNTcgNC41NyAwIDEgMSA0LjU2LTQuNTZBNC41NiA0LjU2IDAgMCAxIDIxIDI4LjY5WiIgY2xhc3M9ImNscy0yIi8+JiN4YTsgICAgPHBhdGggZD0ibTMwLjY3IDE5Ljc0IDItMi41LTQuNzgtNC43OS0yLjUgMi0uNjUtLjI3LS4zNi0zLjE4aC02Ljc2bC0uMzYgMy4xOC0uNjUuMjctMi41LTItNC43OCA0Ljc5IDIgMi41Yy0uMS4yMS0uMTkuNDMtLjI3LjY1bC0zLjE4LjM1djYuNzdsMy4xOC4zNWMuMDguMjIuMTcuNDQuMjcuNjVsLTIgMi41IDQuNzggNC43OSAyLjUtMiAuNjUuMjcuMzYgMy4xOGg2Ljc2bC4zNi0zLjE4LjY1LS4yNyAyLjUgMiA0Ljc4LTQuOC0yLTIuNWMuMS0uMjEuMTktLjQzLjI3LS42NWwzLjE5LS4zNXYtNi43NmwtMy4xOS0uMzVjLS4wOC0uMjItLjE3LS4zOS0uMjctLjY1Wk0zMi40NiAyNmwtMi43Ni4zLS4xNy41MmE5IDkgMCAwIDEtLjU4IDEuNGwtLjI1LjQ4IDEuNzQgMi4xNy0yLjY3IDIuNjctMi4xNy0xLjcxLS40OS4yNWE5LjE1IDkuMTUgMCAwIDEtMS40LjU4bC0uNTEuMTYtLjMxIDIuNzZoLTMuNzhsLS4zMS0yLjc2LS41MS0uMTZhOS4xNSA5LjE1IDAgMCAxLTEuNC0uNThsLS40OS0uMjUtMi4xNyAxLjczLTIuNjctMi42NyAxLjc0LTIuMTctLjI1LS40OGE5IDkgMCAwIDEtLjU4LTEuNGwtLjE3LS41Mkw5LjU0IDI2di0zLjc3bDIuNzYtLjMuMTctLjUyYTkgOSAwIDAgMSAuNTgtMS40bC4yNS0uNDgtMS43NC0yLjE3IDIuNjctMi42NyAyLjE3IDEuNzMuNDktLjI1YTkuMTUgOS4xNSAwIDAgMSAxLjQtLjU4bC41MS0uMTYuMzEtMi43NmgzLjc4bC4zMSAyLjc2LjUxLjE2YTkuMTUgOS4xNSAwIDAgMSAxLjQuNThsLjQ5LjI1IDIuMTctMS43MyAyLjY3IDIuNjctMS43NCAyLjE3LjMuNDdhOSA5IDAgMCAxIC41OCAxLjRsLjE3LjUyIDIuNzYuM1oiIGNsYXNzPSJjbHMtMiIvPiYjeGE7PC9zdmc+;" vertex="1" parent="1">
          <mxGeometry x="50" y="248.99540000000002" width="42" height="42" as="geometry" />
        </mxCell>
        <mxCell id="1-H0sL6W1p6-WdoYktWv-62" value="" style="shape=image;verticalLabelPosition=bottom;labelBackgroundColor=default;verticalAlign=top;aspect=fixed;imageAspect=0;image=data:image/svg+xml,PHN2ZyB4bWxucz0iaHR0cDovL3d3dy53My5vcmcvMjAwMC9zdmciIHZpZXdCb3g9IjAgMCA0MiA0MiIgZGF0YS1uYW1lPSJMYXllciAxIiBpZD0iTGF5ZXJfMSI+JiN4YTsgICAgPGRlZnM+JiN4YTsgICAgICAgIDxzdHlsZT4mI3hhOyAgICAgICAgICAgIC5jbHMtMXtmaWxsOiNmZmZ9LmNscy0ye2ZpbGw6I0FFNTYyQ30mI3hhOyAgICAgICAgPC9zdHlsZT4mI3hhOyAgICA8L2RlZnM+JiN4YTsgICAgPHJlY3Qgcng9IjIuMzgiIGhlaWdodD0iNDEiIHdpZHRoPSI0MSIgeT0iLjUiIHg9Ii41IiBjbGFzcz0iY2xzLTEiLz4mI3hhOyAgICA8cGF0aCBkPSJNMzkuMTMgMUExLjg4IDEuODggMCAwIDEgNDEgMi44OHYzNi4yNUExLjg3IDEuODcgMCAwIDEgMzkuMTMgNDFIMi44OEExLjg4IDEuODggMCAwIDEgMSAzOS4xM1YyLjg4QTEuODggMS44OCAwIDAgMSAyLjg4IDFoMzYuMjVtMC0xSDIuODhBMi44OCAyLjg4IDAgMCAwIDAgMi44OHYzNi4yNUEyLjg4IDIuODggMCAwIDAgMi44OCA0MmgzNi4yNUEyLjg4IDIuODggMCAwIDAgNDIgMzkuMTNWMi44OEEyLjg4IDIuODggMCAwIDAgMzkuMTMgMFoiIGNsYXNzPSJjbHMtMSIvPiYjeGE7ICAgIDxwYXRoIGQ9Ik0zOS4xMyAxSDIuODhBMS44OCAxLjg4IDAgMCAwIDEgMi44OHYzNi4yNUExLjg4IDEuODggMCAwIDAgMi44OCA0MWgzNi4yNUExLjg3IDEuODcgMCAwIDAgNDEgMzkuMTNWMi44OEExLjg4IDEuODggMCAwIDAgMzkuMTMgMVpNMi44OCAyLjY3aDM2LjI1YS4yLjIgMCAwIDEgLjIuMjF2NC43OUgyLjY3VjIuODhhLjIxLjIxIDAgMCAxIC4yMS0uMjFabTM2LjI1IDM2LjY2SDIuODhhLjIuMiAwIDAgMS0uMjEtLjJWOS4zM2gzNi42NnYyOS44YS4yLjIgMCAwIDEtLjIuMloiIGNsYXNzPSJjbHMtMiIvPiYjeGE7ICAgIDxjaXJjbGUgcj0iMS4wNCIgY3k9IjUuMzEiIGN4PSI1LjQ4IiBjbGFzcz0iY2xzLTIiLz4mI3hhOyAgICA8Y2lyY2xlIHI9IjEuMDQiIGN5PSI1LjMxIiBjeD0iOS4xNiIgY2xhc3M9ImNscy0yIi8+JiN4YTsgICAgPGNpcmNsZSByPSIxLjA0IiBjeT0iNS4zMSIgY3g9IjEyLjc3IiBjbGFzcz0iY2xzLTIiLz4mI3hhOyAgICA8cGF0aCBkPSJNMjEgMTcuOWE2LjIzIDYuMjMgMCAxIDAgNi4yMyA2LjIzQTYuMjMgNi4yMyAwIDAgMCAyMSAxNy45Wm0wIDEwLjc5YTQuNTcgNC41NyAwIDEgMSA0LjU2LTQuNTZBNC41NiA0LjU2IDAgMCAxIDIxIDI4LjY5WiIgY2xhc3M9ImNscy0yIi8+JiN4YTsgICAgPHBhdGggZD0ibTMwLjY3IDE5Ljc0IDItMi41LTQuNzgtNC43OS0yLjUgMi0uNjUtLjI3LS4zNi0zLjE4aC02Ljc2bC0uMzYgMy4xOC0uNjUuMjctMi41LTItNC43OCA0Ljc5IDIgMi41Yy0uMS4yMS0uMTkuNDMtLjI3LjY1bC0zLjE4LjM1djYuNzdsMy4xOC4zNWMuMDguMjIuMTcuNDQuMjcuNjVsLTIgMi41IDQuNzggNC43OSAyLjUtMiAuNjUuMjcuMzYgMy4xOGg2Ljc2bC4zNi0zLjE4LjY1LS4yNyAyLjUgMiA0Ljc4LTQuOC0yLTIuNWMuMS0uMjEuMTktLjQzLjI3LS42NWwzLjE5LS4zNXYtNi43NmwtMy4xOS0uMzVjLS4wOC0uMjItLjE3LS4zOS0uMjctLjY1Wk0zMi40NiAyNmwtMi43Ni4zLS4xNy41MmE5IDkgMCAwIDEtLjU4IDEuNGwtLjI1LjQ4IDEuNzQgMi4xNy0yLjY3IDIuNjctMi4xNy0xLjcxLS40OS4yNWE5LjE1IDkuMTUgMCAwIDEtMS40LjU4bC0uNTEuMTYtLjMxIDIuNzZoLTMuNzhsLS4zMS0yLjc2LS41MS0uMTZhOS4xNSA5LjE1IDAgMCAxLTEuNC0uNThsLS40OS0uMjUtMi4xNyAxLjczLTIuNjctMi42NyAxLjc0LTIuMTctLjI1LS40OGE5IDkgMCAwIDEtLjU4LTEuNGwtLjE3LS41Mkw5LjU0IDI2di0zLjc3bDIuNzYtLjMuMTctLjUyYTkgOSAwIDAgMSAuNTgtMS40bC4yNS0uNDgtMS43NC0yLjE3IDIuNjctMi42NyAyLjE3IDEuNzMuNDktLjI1YTkuMTUgOS4xNSAwIDAgMSAxLjQtLjU4bC41MS0uMTYuMzEtMi43NmgzLjc4bC4zMSAyLjc2LjUxLjE2YTkuMTUgOS4xNSAwIDAgMSAxLjQuNThsLjQ5LjI1IDIuMTctMS43MyAyLjY3IDIuNjctMS43NCAyLjE3LjMuNDdhOSA5IDAgMCAxIC41OCAxLjRsLjE3LjUyIDIuNzYuM1oiIGNsYXNzPSJjbHMtMiIvPiYjeGE7PC9zdmc+;" vertex="1" parent="1">
          <mxGeometry x="790" y="243.99540000000002" width="42" height="42" as="geometry" />
        </mxCell>
      </root>
    </mxGraphModel>
  </diagram>
</mxfile>
